<?xml version="1.0" encoding="utf-8"?>
<!-- Generator: Adobe Illustrator 25.4.1, SVG Export Plug-In . SVG Version: 6.00 Build 0)  -->
<svg version="1.1" id="Ebene_1" xmlns:svg="http://www.w3.org/2000/svg"
	 xmlns="http://www.w3.org/2000/svg" xmlns:xlink="http://www.w3.org/1999/xlink" x="0px" y="0px" viewBox="0 0 269.4 82.3"
	 style="enable-background:new 0 0 269.4 82.3;" xml:space="preserve">
<style type="text/css">
	
		.st0{fill:#848400;fill-opacity:0;stroke:#848400;stroke-width:5.4;stroke-linecap:round;stroke-linejoin:round;stroke-miterlimit:10;}
	.st1{fill-rule:evenodd;clip-rule:evenodd;fill:#848400;}
	
		.st2{fill:#848400;fill-opacity:0;stroke:#848400;stroke-width:4.5354;stroke-linecap:round;stroke-linejoin:round;stroke-miterlimit:10;}
	.st3{fill:#848400;}
	.st4{fill:#C2C2C2;}
	
		.st5{fill:#008400;fill-opacity:0;stroke:#008400;stroke-width:2.88;stroke-linecap:round;stroke-linejoin:round;stroke-miterlimit:10;}
	
		.st6{fill:#008400;fill-opacity:0;stroke:#008400;stroke-width:4.32;stroke-linecap:round;stroke-linejoin:round;stroke-miterlimit:10;}
	
		.st7{fill:#008400;fill-opacity:0;stroke:#008400;stroke-width:7.2;stroke-linecap:round;stroke-linejoin:round;stroke-miterlimit:10;}
	
		.st8{fill:#008400;fill-opacity:0;stroke:#008400;stroke-width:1.44;stroke-linecap:round;stroke-linejoin:round;stroke-miterlimit:10;}
	
		.st9{fill-rule:evenodd;clip-rule:evenodd;fill:#008400;stroke:#008400;stroke-width:0.72;stroke-linecap:round;stroke-linejoin:round;stroke-miterlimit:10;}
	.st10{opacity:0;enable-background:new    ;}
	.st11{fill:none;}
	.st12{fill:#840084;}
	.st13{font-family:'ArialMT';}
	.st14{font-size:3.7795px;}
	.st15{letter-spacing:5;}
	.st16{fill:none;stroke:#840084;stroke-width:0.4252;stroke-linecap:round;stroke-linejoin:round;}
	
		.st17{fill:#840084;fill-opacity:0;stroke:#840084;stroke-width:0.4252;stroke-linecap:round;stroke-linejoin:round;stroke-miterlimit:10;}
	.st18{letter-spacing:2;}
	.st19{letter-spacing:3;}
	
		.st20{fill-rule:evenodd;clip-rule:evenodd;fill:#840084;stroke:#840084;stroke-width:2.834647e-02;stroke-linecap:round;stroke-linejoin:round;stroke-miterlimit:10;}
	
		.st21{fill:#848400;fill-opacity:0;stroke:#848400;stroke-width:5.6835;stroke-linecap:round;stroke-linejoin:round;stroke-miterlimit:10;}
	
		.st22{fill:#848400;fill-opacity:0;stroke:#848400;stroke-width:4.8189;stroke-linecap:round;stroke-linejoin:round;stroke-miterlimit:10;}
	.st23{fill:#FFFFFF;}
	
		.st24{fill:#C2C200;fill-opacity:0;stroke:#C2C200;stroke-width:0.1417;stroke-linecap:round;stroke-linejoin:round;stroke-miterlimit:10;}
</style>
<g>
	<g>
		<path class="st0" d="M212.4,73.6v0.3"/>
		<path class="st0" d="M219.6,73.6v0.3"/>
	</g>
	<g>
		<path class="st1" d="M229.5,76.6v-5.7h-5.4v5.7H229.5z"/>
	</g>
	<g>
		<path class="st2" d="M103.5,72.8v1.1"/>
		<path class="st2" d="M110.7,72.8v1.1"/>
		<path class="st2" d="M117.9,72.8v1.1"/>
		<path class="st2" d="M125.1,72.8v1.1"/>
		<path class="st2" d="M132.3,72.8v1.1"/>
		<path class="st2" d="M139.5,72.8v1.1"/>
		<path class="st2" d="M146.7,72.8v1.1"/>
		<path class="st2" d="M153.9,72.8v1.1"/>
		<path class="st2" d="M153.9,8v1.1"/>
		<path class="st2" d="M146.7,8v1.1"/>
		<path class="st2" d="M139.5,8v1.1"/>
		<path class="st2" d="M132.3,8v1.1"/>
		<path class="st2" d="M125.1,8v1.1"/>
		<path class="st2" d="M117.9,8v1.1"/>
	</g>
	<g>
		<path class="st1" d="M106.4,5.7h-5.7v5.7h5.7V5.7z"/>
	</g>
	<g>
		<path class="st2" d="M110.7,8v1.1"/>
	</g>
	<g>
		<path class="st2" d="M62,62.7h2.3"/>
		<path class="st2" d="M40.4,19.5h2.3"/>
		<path class="st2" d="M62,55.5h2.3"/>
		<path class="st2" d="M40.4,26.7h2.3"/>
		<path class="st2" d="M62,48.3h2.3"/>
		<path class="st2" d="M40.4,33.9h2.3"/>
		<path class="st2" d="M62,41.1h2.3"/>
		<path class="st2" d="M40.4,41.1h2.3"/>
		<path class="st2" d="M62,33.9h2.3"/>
		<path class="st2" d="M40.4,48.3h2.3"/>
		<path class="st2" d="M62,26.7h2.3"/>
		<path class="st2" d="M40.4,55.5h2.3"/>
		<path class="st2" d="M62,19.5h2.3"/>
	</g>
	<g>
		<path class="st1" d="M38.1,60.4v4.5h6.8v-4.5H38.1z"/>
	</g>
	<g>
		<circle class="st3" cx="33.7" cy="41.1" r="2"/>
		<circle class="st3" cx="19.3" cy="41.1" r="2"/>
	</g>
	<g>
		<circle class="st3" cx="174.4" cy="31.3" r="2"/>
		<circle class="st3" cx="160" cy="31.3" r="2"/>
	</g>
	<g>
		<circle class="st3" cx="174.4" cy="19.9" r="2"/>
		<circle class="st3" cx="160" cy="19.9" r="2"/>
	</g>
	<g>
		<circle class="st3" cx="260.8" cy="38.2" r="2.4"/>
		<path class="st1" d="M258.4,43v4.8h4.8V43H258.4z"/>
	</g>
	<g>
		<circle class="st3" cx="5.7" cy="33.9" r="2.4"/>
		<circle class="st3" cx="5.7" cy="41.1" r="2.4"/>
		<circle class="st3" cx="5.7" cy="48.3" r="2.4"/>
		<path class="st1" d="M3.3,53.1v4.8h4.8v-4.8H3.3z"/>
	</g>
	<g>
		<circle class="st3" cx="205.5" cy="11.4" r="2.4"/>
		<path class="st1" d="M210.3,13.8h4.8V9h-4.8V13.8z"/>
	</g>
	<g>
		<circle class="st3" cx="241" cy="22.3" r="3.1"/>
		<path class="st1" d="M237.9,54.2h6.2V48h-6.2V54.2z"/>
	</g>
	<g>
		<circle class="st3" cx="187" cy="34.1" r="2.6"/>
	</g>
	<g>
		<path class="st1" d="M196.8,36.6v-5.1h-5.1v5.1H196.8z"/>
	</g>
	<g>
		<circle class="st3" cx="187" cy="14.2" r="2.6"/>
	</g>
	<g>
		<path class="st1" d="M196.8,16.8v-5.1h-5.1v5.1H196.8z"/>
	</g>
	<g>
		<circle class="st3" cx="199.9" cy="59.6" r="2.3"/>
	</g>
	<g>
		<circle class="st3" cx="199.9" cy="73.8" r="2.3"/>
	</g>
	<g>
		<circle class="st3" cx="241" cy="59.6" r="2.3"/>
	</g>
	<g>
		<circle class="st3" cx="241" cy="73.8" r="2.3"/>
	</g>
	<g>
		<circle class="st3" cx="73.1" cy="48.3" r="2.3"/>
	</g>
	<g>
		<circle class="st3" cx="73.1" cy="62.4" r="2.3"/>
	</g>
	<g>
		<circle class="st3" cx="140.4" cy="64.6" r="2.3"/>
	</g>
	<g>
		<circle class="st3" cx="154.6" cy="64.6" r="2.3"/>
	</g>
	<g>
		<circle class="st3" cx="186.4" cy="63.9" r="2.3"/>
	</g>
	<g>
		<circle class="st3" cx="186.4" cy="69.5" r="2.3"/>
	</g>
	<g>
		<circle class="st3" cx="28.4" cy="25.6" r="2.3"/>
	</g>
	<g>
		<circle class="st3" cx="28.4" cy="31.3" r="2.3"/>
	</g>
	<g>
		<circle class="st4" cx="79.4" cy="11.4" r="2.8"/>
	</g>
	<g>
		<path class="st5" d="M146.7,70.9l-6.4-6.4"/>
		<path class="st5" d="M146.7,73.4v-2.5"/>
		<path class="st5" d="M161.6,58.9H146"/>
		<path class="st5" d="M186.4,63.8h-19.8"/>
		<path class="st5" d="M146,58.9l-5.7,5.7"/>
		<path class="st5" d="M166.6,63.8l-5-5"/>
		<path class="st5" d="M190.7,59.6l-4.2,4.3"/>
		<path class="st5" d="M199.9,59.6h-9.2"/>
		<path class="st5" d="M205.5,59.6h-5.6"/>
		<path class="st5" d="M219.6,73.8l-14.2-14.2"/>
		<path class="st5" d="M219.6,71.5v2.2"/>
	</g>
	<g>
		<path class="st6" d="M246.7,59.6l14.2-14.2"/>
		<path class="st6" d="M241,59.6h5.7"/>
		<path class="st6" d="M219.6,70.3v3.5"/>
		<path class="st6" d="M230.3,59.6l-10.7,10.7"/>
		<path class="st6" d="M241,59.6h-10.7"/>
		<path class="st6" d="M41.5,62.7H48"/>
		<path class="st6" d="M55.2,55.5h7.9"/>
		<path class="st6" d="M48,62.7l7.2-7.2"/>
		<path class="st6" d="M70.8,33.9l2.2,2.2"/>
		<path class="st6" d="M73.1,36.1v12.2"/>
		<path class="st6" d="M63.1,33.9h7.7"/>
		<path class="st6" d="M65.9,55.5h-2.7"/>
		<path class="st6" d="M73.1,48.3l-7.2,7.2"/>
		<path class="st6" d="M33.6,19.5l-5.2,5.2"/>
		<path class="st6" d="M41.5,19.5h-7.9"/>
		<path class="st6" d="M5.7,48.3v7.2"/>
		<path class="st6" d="M55.2,47v8.4"/>
		<path class="st6" d="M49.2,41.1l6,6"/>
		<path class="st6" d="M41.5,41.1h7.7"/>
		<path class="st6" d="M55.4,33.9l-4.3-4.3"/>
		<path class="st6" d="M63.1,33.9h-7.7"/>
		<path class="st6" d="M51.1,21.3l-1.8-1.8"/>
		<path class="st6" d="M49.2,19.5h-7.7"/>
		<path class="st6" d="M51.1,29.5v-8.2"/>
		<path class="st6" d="M79.4,70.9H49.8"/>
		<path class="st6" d="M49.8,70.9l-8.3-8.3"/>
		<path class="st6" d="M140.4,64.6H85.8"/>
		<path class="st6" d="M85.8,64.6l-6.4,6.4"/>
	</g>
	<g>
		<path class="st5" d="M209.8,49.7l-9.9,9.9"/>
		<path class="st5" d="M209.8,19.9v29.8"/>
		<path class="st5" d="M212.7,11.4v5.7"/>
		<path class="st5" d="M212.7,17.1l-2.8,2.8"/>
	</g>
	<g>
		<path class="st7" d="M256,37.3h4.9"/>
		<path class="st7" d="M241,22.3l15,15"/>
	</g>
	<g>
		<path class="st6" d="M26.7,33.9l1.7-1.7"/>
		<path class="st6" d="M5.7,33.9h21"/>
	</g>
	<g>
		<path class="st7" d="M32.5,11.4h46.9"/>
		<path class="st7" d="M10,33.9l22.4-22.4"/>
		<path class="st7" d="M5.7,33.9H10"/>
	</g>
	<g>
		<path class="st5" d="M153.9,65.2l0.6-0.6"/>
		<path class="st5" d="M153.9,73.4v-8.2"/>
		<path class="st5" d="M159.5,69.5l-5-5"/>
		<path class="st5" d="M186.4,69.5h-26.9"/>
		<path class="st5" d="M195.6,69.5l4.3,4.3"/>
		<path class="st5" d="M186.4,69.5h9.2"/>
		<path class="st5" d="M199.9,73.8h12.5"/>
	</g>
	<g>
		<path class="st6" d="M63.4,62.4l-0.2,0.2"/>
		<path class="st6" d="M73.1,62.4h-9.7"/>
	</g>
	<g>
		<path class="st5" d="M104.2,31.2L73.1,62.4"/>
		<path class="st5" d="M160,31.2h-55.8"/>
	</g>
	<g>
		<path class="st6" d="M241,73.8h-14.2"/>
	</g>
	<g>
		<path class="st8" d="M181.4,19.9l5.7-5.7"/>
		<path class="st8" d="M174.4,19.9h7"/>
		<path class="st8" d="M197.1,11.4l-2.8,2.8"/>
		<path class="st8" d="M194.2,14.2v19.8"/>
		<path class="st8" d="M205.5,11.4h-8.4"/>
		<path class="st8" d="M184.2,31.2l2.8,2.8"/>
		<path class="st8" d="M174.4,31.2h9.8"/>
		<path class="st8" d="M5.7,41L5.7,41"/>
		<path class="st8" d="M19.3,41H5.7"/>
		<path class="st8" d="M40.9,48.3L33.7,41"/>
		<path class="st8" d="M41.5,48.3h-0.7"/>
		<path class="st8" d="M135.2,77.6l4.3-4.3"/>
		<path class="st8" d="M40.8,77.6h94.5"/>
		<path class="st8" d="M41.5,55.5V55"/>
		<path class="st8" d="M34.1,70.9l6.7,6.7"/>
		<path class="st8" d="M41.5,55h-0.6"/>
		<path class="st8" d="M40.9,55l-6.9,6.9"/>
		<path class="st8" d="M34.1,61.8v9.1"/>
	</g>
	<g>
		<g>
			<path class="st9" d="M72.8,5.6L72.8,5.6l0,0.4h6.9l0.8,0.1l1,0.3l0.9,0.5l0.8,0.7l0.7,0.8l0.5,0.9l0.3,1l0.1,1.1l-0.1,1.1l-0.3,1
				l-0.5,0.9l-0.7,0.8l-0.8,0.7l-0.9,0.5l-1,0.3l-0.8,0.1H67.4l0.3,0.4l0.4,0.7l0.2,0.8l0.1,0.8l-0.1,0.8L68,21l-0.4,0.7l-0.5,0.6
				l-0.6,0.5l-0.4,0.2l0.4,0.2l0.6,0.5l0.5,0.6l0.4,0.7l0.2,0.8l0.1,0.8l-0.1,0.8L68,28.2l-0.4,0.7l-0.5,0.6l-0.6,0.5l-0.4,0.2
				l0.7,0.4l0.6,0.6l0.5,0.7l0.3,0.7l0,0.2l-0.3,0.6h-4.4v-0.1h-0.7v0.1h-4.4l-0.3-0.6l0-0.2l0.3-0.7l0.5-0.7l0.6-0.6l0.7-0.4
				l-0.4-0.2l-0.6-0.5l-0.5-0.6l-0.4-0.7L58,27.5l-0.1-0.8l0.1-0.8l0.2-0.8l0.4-0.7l0.5-0.6l0.6-0.5l0.4-0.2l-0.4-0.2l-0.6-0.5
				l-0.5-0.6L58.2,21L58,20.3l-0.1-0.8l0.1-0.8l0.2-0.8l0.4-0.7l0.3-0.4H45.8l0,0l0.5,0.7l0.3,0.7l0,0.2l-0.3,0.6h-4.4V19h-0.7v0.1
				h-4.4l-0.3-0.6l0-0.2l0.3-0.7l0.5-0.7l0,0h-2.6l-4.9,4.9l0.4,0.1l0.4,0.2l0.2,0.7l-2.3,2.3l0,0l-0.5,0.5l0,0l0,0l0.5,0.5l0,0l0,0
				l0.5-0.5l0,0l2.3-2.3l0.7,0.2l0.3,0.7l0.2,0.8l0,0.8l-0.1,0.8l-0.3,0.8l-0.2,0.4l-0.7,0.2l0.3,0.3l-0.2,0.2l0.2,0.2l0.4,0.7
				l0.3,0.7l0.2,0.8v0.8l-0.1,0.5l0,0l-0.1,0.8l-0.2,0.7l-0.4,0.7l-0.4,0.5l-1.7,1.7l-0.1,0.2l-0.6,0.5l-0.7,0.4l-0.7,0.2l-0.8,0.1
				l-0.2,0h-5.3l0.4,0.3l0.5,0.5l0.4,0.6l0.3,0.7l0.1,0.7v0.7l-0.1,0.7l-0.3,0.7l-0.4,0.6L21.7,44l-0.6,0.4l-0.7,0.3l-0.7,0.1h-0.7
				l-0.7-0.1l-0.7-0.3L16.9,44l-0.4-0.4H9.1L9,43.7l-0.6,0.6l-0.5,0.3l0.3,0.2l0.6,0.6l0.5,0.7l0.4,0.7l0.1,0.4l-0.3,0.7H6.1v-0.1
				H5.4v0.1H5.3v0.7h0.1v6.5H5.3v0.7h0.1v3.4l-0.4,0.4l-1.6,0l-0.4,0l-0.3-0.1l-0.3-0.2L2,59.1L1.9,59v21.4h265.5V70.3h-3.1v1.2
				l-0.2,1.2l-0.5,1.2l-0.7,1l-0.9,0.9l-1,0.7l-1.2,0.5l-1.2,0.2h-1.2l-1.2-0.2l-1.2-0.5l-1-0.7l-0.9-0.9l-0.7-1l-0.2-0.6h-7.1v0.8
				l-0.2,0.8l-0.3,0.7l-0.4,0.7l-0.6,0.6l-0.7,0.4l-0.7,0.3l-0.8,0.2h-0.8l-0.5-0.1h-9.1l-0.1,0.2l-0.3,0.2l-0.3,0.2l-0.3,0.1
				l-0.4,0h-5.4l-0.4,0l-0.3-0.1l-0.3-0.2l-0.3-0.2l-0.2-0.3l-0.1-0.3l-0.4,0.3l-0.8,0.4l-0.6,0.2l-0.7-0.3v-3.8h0.1v-0.7H220v-3.8
				h-0.7v3.8h-0.1v0.7h0.1v3.8l-0.7,0.3l-0.6-0.2l-0.8-0.4l-0.7-0.6l-0.4-0.5l-0.4,0.5l-0.7,0.6l-0.8,0.4l-0.8,0.3l-0.9,0.1
				l-0.9-0.1l-0.8-0.3l-0.8-0.4l-0.7-0.6l-0.1-0.1h-6.8l-0.5,0.4l-0.7,0.3l-0.8,0.2h-0.8l-0.8-0.2l-0.7-0.3l-0.7-0.4l-0.6-0.6
				l-0.4-0.7L196,75l-0.1-0.6l-1.6-1.6h-5.4l-0.5,0.4l-0.7,0.3l-0.8,0.2H186l-0.8-0.2l-0.7-0.3l-0.5-0.4h-24.3l-0.2,0l-0.2,0l0,0
				l-0.5,0l-0.6-0.2l-0.3-0.2l0,0.2v1.5l-0.1,0.6l-0.2,0.8l-0.4,0.7l-0.5,0.6l-0.6,0.5l-0.7,0.4l-0.8,0.2l-0.8,0.1l-0.8-0.1
				l-0.8-0.2l-0.7-0.4l-0.6-0.5l-0.5-0.6l-0.2-0.4l0,0l-0.4,0.7l-0.6,0.6l-0.7,0.4l-0.7,0.3l-0.2,0l-0.6-0.3v-3.8h0.1V73h-0.1v-3.8
				h-0.7V73h-0.1v0.7h0.1v3.8l-0.6,0.3l-0.2,0l-0.7-0.3l-0.7-0.4l-0.6-0.6l-0.4-0.7l0,0l-0.2,0.4l-0.5,0.6l-0.6,0.5l-0.7,0.4
				l-0.8,0.2l-0.8,0.1l-0.8-0.1l-0.2-0.1l-1.4,1.4l-0.1,0.1l-0.4,0.3l-0.4,0.2L136,80l-0.3,0.1l-0.1,0l-0.3,0l0,0l-0.1,0l-0.1,0
				H40.9l-0.1,0l-0.1,0l0,0l-0.4,0L39.8,80l-0.4-0.2L39,79.4l-0.1-0.1l-6.5-6.5l-0.1-0.1L32,72.3l-0.2-0.4l-0.1-0.3l0-0.2l0-0.1
				l0-0.3l0,0l0-0.1l0-0.1v-0.5H17.7v1.2l-0.2,1.2L17,73.9l-0.7,1l-0.9,0.9l-1,0.7L13.2,77L12,77.3h-1.2L9.6,77l-1.2-0.5l-1-0.7
				L6.5,75l-0.7-1l-0.5-1.2l-0.2-1.2v-1.2l0.2-1.2l0.5-1.2l0.7-1L7.4,66l1-0.7l1.2-0.5l1.2-0.2H12l1.2,0.2l1.2,0.5l1,0.7l0.9,0.9
				l0.7,1l0.5,1.2l0.2,1.2h13.8V62l0-0.1l0-0.5l0.1-0.3l0.1-0.2l0.2-0.4l0.3-0.4l0.1-0.1l2.1-2.1H9.9l0,0.4l-0.1,0.3l-0.2,0.3
				l-0.2,0.3l-0.3,0.2l-0.3,0.2l-0.3,0.1l-0.4,0l-1.6,0l-0.4-0.4v-3.4h3.4l0.5,0.5l0,1.6h24.5l1.9-1.9l-0.1-0.5l0.1-0.8l0.2-0.8
				l0.4-0.7l0.1-0.1H9.9l0,1.6l-0.5,0.4H6.1v-6.5h3.4l0.3,0.7l-0.1,0.4l-0.4,0.7l-0.5,0.7l-0.2,0.2l0.2,0.1l0.3,0.2l0.3,0.2L9.6,52
				l0.2,0.3l0.1,0.3l0,0.4h27.2l0.4-0.5l0.6-0.5l0.4-0.2l-0.4-0.2l-0.6-0.5L37,50.5l-0.4-0.7l-0.2-0.8l-0.1-0.8l0.1-0.8l0-0.1
				l-2.5-2.5h-0.6l-0.7-0.1l-0.7-0.3L31.3,44l-0.5-0.5l-0.4-0.6L30,42.2l-0.1-0.7v-0.7L30,40l0.3-0.7l0.4-0.6l0.5-0.5l0.6-0.4
				l0.7-0.3l0.7-0.1H34l0.7,0.1l0.7,0.3l0.6,0.4l0.5,0.5l0.3,0.4l0.4-0.6l0.6-0.6l0.7-0.4l-0.4-0.2l-0.6-0.5L37,36.1l-0.4-0.7
				l-0.2-0.8l-0.1-0.8l0.1-0.8l0.2-0.8l0.4-0.7l0.5-0.6l0.6-0.5l0.4-0.2l-0.4-0.2l-0.6-0.5L37,28.9l-0.4-0.7l-0.2-0.8l-0.1-0.8
				l0.1-0.8l0.2-0.8l0.4-0.7l0.5-0.6l0.6-0.5l0.4-0.2l-0.7-0.4l-0.6-0.6l-0.5-0.7l-0.3-0.7l0-0.2l0.3-0.6h4.4v0.1h0.7v-0.1h4.4
				l0.3,0.6l0,0.2l-0.3,0.7l-0.5,0.7l-0.6,0.6l-0.7,0.4l0.4,0.2l0.6,0.5l0.5,0.6l0.4,0.7l0.2,0.8l0.1,0.8l-0.1,0.8l-0.2,0.8
				l-0.4,0.7l-0.5,0.6l-0.6,0.5l-0.4,0.2l0.4,0.2l0.6,0.5l0.5,0.6l0.4,0.7l0.2,0.8l0.1,0.8l-0.1,0.8l-0.2,0.8l-0.4,0.7l-0.5,0.6
				l-0.6,0.5l-0.4,0.2l0.7,0.4l0.6,0.6l0.5,0.7l0.3,0.7l0,0.2l-0.3,0.6h-4.4v-0.1h-0.7v0.1h-0.1v0.7h0.1v0.1h0.7v-0.1h4.4l0.3,0.6
				l0,0.2L46.2,43l-0.5,0.7l-0.6,0.6l-0.7,0.4l0.4,0.2l0.6,0.5l0.5,0.6l0.4,0.7l0.2,0.8l0.1,0.8l-0.1,0.8l-0.2,0.8l-0.4,0.7
				l-0.5,0.6l-0.6,0.5l-0.4,0.2l0.4,0.2l0.6,0.5l0.5,0.6l0.4,0.7l0.2,0.8l0.1,0.8l-0.1,0.8L46.4,57l-0.4,0.7l-0.5,0.6l-0.3,0.3
				l0.1,0l0.3,0.1l0.3,0.2l0.3,0.2l0.2,0.3l0.2,0.3l0.1,0.3l0,0.4l0,1.5l-0.5,0.5h-4.4v-0.1h-0.7v0.1h-0.1V63h0.1v3.3l-0.4,0.4
				l-2.6,0l-0.4,0l-0.3-0.1l-0.3-0.2l-0.3-0.2l-0.2-0.3l0-0.1v4l5.2,5.2h57.8l-0.1-0.4l-0.1-0.6v-1.5l0.1-0.6l0.2-0.8l0.4-0.7
				l0.5-0.6l0.6-0.5L102,69l0.8-0.2l0.8-0.1l0.8,0.1l0.8,0.2l0.7,0.4l0.6,0.5l0.5,0.6l0.2,0.4l0.2-0.4l0.5-0.6l0.6-0.5l0.7-0.4
				l0.8-0.2l0.8-0.1l0.8,0.1l0.8,0.2l0.7,0.4l0.6,0.5l0.5,0.6l0.2,0.4l0.2-0.4l0.5-0.6l0.6-0.5l0.7-0.4l0.8-0.2l0.8-0.1l0.8,0.1
				l0.8,0.2l0.7,0.4l0.6,0.5l0.5,0.6l0.2,0.4l0.2-0.4l0.5-0.6l0.6-0.5l0.7-0.4l0.8-0.2l0.8-0.1l0.8,0.1l0.8,0.2l0.7,0.4l0.6,0.5
				l0.5,0.6l0.2,0.4l0.2-0.4l0.5-0.6l0.6-0.5l0.7-0.4l0.8-0.2l0.8-0.1l0.8,0.1l0.8,0.2l0.7,0.4l0.6,0.5l0.5,0.6l0.2,0.4l0.2-0.4
				l0.5-0.6l0.6-0.5L138,69l0.8-0.2l0.8-0.1l0.8,0.1l0.8,0.2l0.7,0.4l0.6,0.5l0.5,0.6l0.2,0.4l0,0l0.4-0.7l0.6-0.6l0.7-0.4l0.7-0.3
				l0.2,0l0.6,0.3h0.7l0.6-0.3l0.2,0l0.7,0.3l0.7,0.4l0.6,0.6l0.4,0.7l0,0l0.2-0.4l0.2-0.2v-3h-8l-0.2,0.7l-0.7,0.3l-0.8,0.2l-0.8,0
				l-0.8-0.1l-0.8-0.3l-0.4-0.2l-0.2-0.7l2.3-2.3l2.3,2.3h8v-1.5l0-0.1l-0.2-0.8v-0.2h-6l-0.1,0.8l-0.3,0.8l-0.2,0.4l-0.7,0.2
				l-2.3-2.3h-1l-2.3,2.3l-0.7-0.2l-0.3-0.7l-0.2-0.8l0-0.8l0.1-0.8l0.3-0.8l0.2-0.4l0.7-0.2l2.3,2.3h1l2.3-2.3l0.7,0.2l0.3,0.7
				l0.2,0.8l0,0.8h6v-0.6l0.2-0.8l0.3-0.7l0.4-0.7l0.2-0.2h-8.9l-2.3,2.3l-2.3-2.3l0.2-0.7l0.7-0.3l0.8-0.2l0.8,0l0.8,0.1l0.8,0.3
				l0.4,0.2l0.2,0.7h8.9l0.3-0.3l0.7-0.4l0.7-0.3l0.8-0.2h0.8l0.8,0.2l0.7,0.3l0.7,0.4l0.6,0.6l0.4,0.7l0.3,0.7l0.1,0.6l2.3,2.3
				h22.6l0.1-0.1l-0.7-0.2l-0.3-0.7l-0.2-0.8l0-0.8l0.1-0.8l0.3-0.8l0.2-0.4l0.7-0.2l2.3,2.3l0,0l0.5,0.5l0,0l0,0l0.5-0.5l0,0
				l2.3-2.3l0.7,0.2l0.3,0.7l0.2,0.8l0,0.8l-0.1,0.8l-0.3,0.8l-0.2,0.4l-0.7,0.2l0.1,0.1h6.1l0.2,0l0.2,0l0,0l0.4,0l0.1,0l0.1,0
				l0.5,0.1l0.6,0.3l0,0l0,0l0.4,0.3v0l0.1,0.1l0.1,0.1l2.4,2.4l0.6,0.1l0.7,0.3l0.5,0.4h6.8l0.1-0.1l0.7-0.6l0.8-0.4l0.8-0.3
				l0.9-0.1l0.9,0.1l0.8,0.3l0.8,0.4l0.7,0.6l0.4,0.5l0.4-0.5l0.7-0.6l0.8-0.4l0.6-0.2l0.7,0.3h0.7l0.7-0.3l0.6,0.2l0.8,0.4l0.4,0.3
				l0.1-0.3l0.2-0.3l0.3-0.2l0.3-0.2l0.3-0.1l0.4,0h5.4l0.4,0l0.3,0.1l0.3,0.2l0.3,0.2l0.1,0.2h9.1l0.5-0.1h0.8l0.8,0.2l0.7,0.3
				l0.7,0.4l0.6,0.6l0.4,0.7l0.3,0.7l0.2,0.8h7.1l-0.2-0.6l-0.2-1.2v-1.2l0.2-1.2l0.5-1.2l0.7-1L254,66l1-0.7l1.2-0.5l1.2-0.2h1.2
				l1.2,0.2l1.2,0.5l1,0.7l0.9,0.9l0.7,1l0.5,1.2l0.2,1.2h3.1v-7.9h-24.2l-0.2,0.7l-0.7,0.3l-0.8,0.2l-0.8,0l-0.8-0.1l-0.8-0.3
				l-0.4-0.2l-0.2-0.7h-36.5l-0.2,0.7l-0.7,0.3l-0.8,0.2l-0.8,0l-0.8-0.1l-0.8-0.3l-0.4-0.2l-0.2-0.7l2.3-2.3l2.3,2.3h36.5l2.3-2.3
				l2.3,2.3h24.2v-2.6h-22.4l-0.1,0.8l-0.3,0.8l-0.2,0.4l-0.7,0.2l-2.3-2.3h-1l-2.3,2.3l-0.7-0.2l-0.3-0.7l-0.2-0.8l0-0.4h-33
				l-0.1,0.8l-0.3,0.8l-0.2,0.4l-0.7,0.2l-2.3-2.3h-1l-2.3,2.3l-0.7-0.2l-0.3-0.7h-7.3l-2.3,2.3l-2.3-2.3l0.2-0.7l0.7-0.3l0.8-0.2
				l0.8,0l0.8,0.1l0.8,0.3l0.4,0.2l0.2,0.7h7.3l0-0.1l-0.2-0.8l0-0.8l0.1-0.8l0.3-0.8l0.2-0.4l0.7-0.2l2.3,2.3h1l2.3-2.3l0.7,0.2
				l0.3,0.7l0.2,0.8l0,0.8h33l0-0.4l0.1-0.8l0.3-0.8l0.2-0.4l0.7-0.2l2.3,2.3h1l2.3-2.3l0.7,0.2l0.3,0.7L245,59l0,0.8h22.4v-12h-2.4
				l0,0.4l-0.1,0.3l-0.2,0.3l-0.2,0.3l-0.3,0.2l-0.3,0.2l-0.3,0.1l-0.4,0l-1.6,0l-0.5-0.5v-3.4h-0.7v3.4l-0.4,0.5l-1.6,0l-0.4,0
				l-0.3-0.1l-0.3-0.2l-0.3-0.2l-0.2-0.3l-0.2-0.3l-0.1-0.3l0-0.2h-10.7v6.2l0,0.4l-0.1,0.3l-0.2,0.3l-0.2,0.3l-0.3,0.2l-0.3,0.2
				l-0.3,0.1l-0.4,0H243l0.1,0.1l0.2,0.7l-2.3,2.3l-2.3-2.3h-36.5l-2.3,2.3l-2.3-2.3l0.2-0.7l0.7-0.3l0.8-0.2l0.8,0l0.8,0.1l0.8,0.3
				l0.4,0.2l0.2,0.7h36.5l0.2-0.7l0.2-0.1h-1.2l-0.4,0l-0.3-0.1l-0.3-0.2l-0.3-0.2l-0.2-0.3l-0.2-0.3l-0.1-0.3l0-0.4V48l0-0.4
				l0.1-0.3l0.2-0.3l0.2-0.3l0.3-0.2l0.3-0.2l0.3-0.1l0.4,0h6.2l0.4,0l0.3,0.1l0.3,0.2l0.3,0.2l0.2,0.3l0.2,0.3l0.1,0.3l0,0.4h10.7
				l0-0.1l0-1.6l0.5-0.5h3.4h0.7h3.4l0.5,0.5l0,1.6h2.4V37.3h-1.2l-0.1,1.1l-0.3,1l-0.5,0.9l-0.7,0.8l-0.5,0.4l0.1,0l0.3,0.2
				l0.2,0.3l0.2,0.3l0.1,0.3l0,0.4l0,1.6l-0.5,0.4h-3.4V45h-0.7v0.1h-3.4l-0.5-0.4l0-1.6l0-0.4l0,0h-0.4l-0.3,0l-0.3,0l0,0l-0.8-0.1
				l-1-0.3l-0.9-0.5l-0.8-0.7l-0.2-0.2l-15-15l0,0h-10.6v1.3l-0.3,1.3l-0.5,1.2l-0.7,1.1l-0.9,0.9l-1.1,0.7l-1.2,0.5l-1.3,0.3H219
				l-1.3-0.3l-1.2-0.5l-1.1-0.7l-0.9-0.9l-0.7-1.1l-0.5-1.2l-0.3-1.3v-1.3l0.3-1.3l0.5-1.2l0.7-1.1l0.9-0.9l1.1-0.7l1.2-0.5l1.3-0.3
				h1.3l1.3,0.3l1.2,0.5l1.1,0.7l0.9,0.9l0.7,1.1l0.5,1.2l0.3,1.3H237l-0.5-0.6l-0.5-0.9l-0.3-1l-0.1-1.1l0.1-1.1l0.3-1l0.5-0.9
				l0.7-0.8l0.8-0.7l0.9-0.5l1-0.3l1.1-0.1l1.1,0.1l1,0.3l0.9,0.5l0.6,0.5l13.6,13.6h2.9l0.8,0.1l1,0.3l0.9,0.5l0.8,0.7l0.7,0.8
				l0.5,0.9l0.3,1l0.1,1.1h1.2V16.5h-3.1v1.2l-0.2,1.2l-0.5,1.2l-0.7,1l-0.9,0.9l-1,0.7l-1.2,0.5l-1.2,0.2h-1.2l-1.2-0.2l-1.2-0.5
				l-1-0.7l-0.9-0.9l-0.7-1l-0.5-1.2l-0.2-1.2v-1.2l0.2-1.2l0.5-1.2l0.2-0.3h-35.7l0,0.4l-0.1,0.3l-0.2,0.3l-0.2,0.3l-0.3,0.2
				l-0.3,0.2l-0.3,0.1l-0.4,0l-1.6,0l-0.4-0.4v-3.4h3.4l0.4,0.4l0,1.6h35.7l0.5-0.8l0.9-0.9l1-0.7l1.2-0.5l1.2-0.2h1.2l1.2,0.2
				l1.2,0.5l1,0.7l0.9,0.9l0.7,1l0.5,1.2l0.2,1.2h3.1V9h-50.6l0,1.6l-0.4,0.4H213V7.6h-0.7V11h-0.1v0.7h0.1v3.4l-0.4,0.4l-1.6,0
				l-0.4,0l-0.3-0.1l-0.3-0.2l-0.3-0.2l-0.2-0.3l-0.2-0.3l-0.1-0.2l-0.4,0.4l-0.7,0.5l-0.8,0.3l-0.8,0.2H205l-0.8-0.2l-0.8-0.3
				l-0.7-0.5l-0.6-0.6l-0.1-0.2h-3.5v2.9l0,0.4l-0.1,0.3l-0.2,0.3l-0.2,0.3l-0.3,0.2l-0.3,0.2l-0.3,0.1l-0.4,0h0v11.1h0l0.4,0
				l0.3,0.1l0.3,0.2l0.3,0.2l0.2,0.3l0.2,0.3l0.1,0.3l0,0.4v5.1l0,0.4l-0.1,0.3l-0.2,0.3l-0.2,0.3l-0.3,0.2l-0.3,0.2l-0.3,0.1
				l-0.4,0h-5.1l-0.4,0l-0.3-0.1l-0.3-0.2l-0.3-0.2l-0.2-0.3l-0.2-0.3l0-0.1l-0.2,0.2l-0.7,0.5l-0.8,0.3l-0.8,0.2h-0.9l-0.8-0.2
				l-0.8-0.3l-0.7-0.5l-0.6-0.6l-0.5-0.7l-0.3-0.8l-0.2-0.8v-0.7h-5.5l-0.4,0.4l-0.6,0.4l-0.7,0.3l-0.7,0.1H174l-0.7-0.1l-0.7-0.3
				l-0.6-0.4l-0.5-0.5L171,33l-0.3-0.7l-0.1-0.7v-0.7h-6.8v0.7l-0.1,0.7l-0.3,0.7l-0.4,0.6l-0.5,0.5l-0.6,0.4l-0.7,0.3l-0.7,0.1
				h-0.7l-0.7-0.1l-0.7-0.3l-0.2-0.1h-52.5L77.1,63L77,63.6l-0.3,0.7L76.2,65l-0.6,0.6L75,66l-0.7,0.3l-0.8,0.2h-0.8l-0.5-0.1h-6.2
				l-0.1,0l-0.8,0.2l-0.6,0.1h-2.7l-0.6-0.1l-0.8-0.2l-0.7-0.4l-0.6-0.5l-0.5-0.6l0,0H46.7l0,0.4l-0.1,0.3l-0.2,0.3l-0.2,0.3
				l-0.3,0.2l-0.3,0.2l-0.3,0.1l-0.4,0l-2.6,0l-0.5-0.4V63h4.4l0.5,0.4l0,1.5h11.9l-0.4-0.7L58,63.5l-0.1-0.8l0.1-0.8l0.2-0.8
				l0.4-0.7l0.5-0.6l0.6-0.5l0.4-0.2l-0.7-0.4l-0.6-0.6l-0.5-0.7l-0.3-0.7l0-0.2l0.3-0.6h4.4v0.1h0.7v-0.1h4.4l0.3,0.6l0,0.2
				l-0.3,0.7l-0.5,0.7L67,58.5h5.1l0.4-0.1l7.3-7.3h-4.5l-0.2,0.7l-0.7,0.3l-0.8,0.2l-0.8,0l-0.8-0.1L71.3,52L71,51.8l-0.2-0.7
				l2.3-2.3l2.3,2.3h4.5l2.6-2.6h-5.3L77,49.3L76.7,50l-0.2,0.4l-0.7,0.2l-2.3-2.3h-1l-2.3,2.3l-0.7-0.2l-0.3-0.7L69,48.9l0-0.8
				l0.1-0.8l0.3-0.8l0.2-0.4l0.7-0.2l2.3,2.3h1l2.3-2.3l0.7,0.2l0.3,0.7l0.2,0.8l0,0.8h5.3l3-3H75.4l-2.3,2.3l-2.3-2.3l0.2-0.7
				l0.7-0.3l0.8-0.2l0.8,0l0.8,0.1l0.8,0.3l0.4,0.2l0.2,0.7h10.1l4.4-4.4H68.4l-0.1,0.8L68,42.6l-0.4,0.7L67.2,44l-0.6,0.5l-0.4,0.2
				l0.4,0.2l0.6,0.5l0.5,0.6l0.4,0.7l0.2,0.8l0.1,0.8l-0.1,0.8L68,49.8l-0.4,0.7l-0.5,0.6l-0.6,0.5l-0.4,0.2l0.7,0.4l0.6,0.6
				l0.5,0.7l0.3,0.7l0,0.2l-0.3,0.6h-4.4V55h-0.7v0.1h-4.4l-0.3-0.6l0-0.2l0.3-0.7l0.5-0.7l0.6-0.6l0.7-0.4l-0.4-0.2l-0.6-0.5
				l-0.5-0.6l-0.4-0.7L58,49.1l-0.1-0.8l0.1-0.8l0.2-0.8l0.4-0.7l0.5-0.6l0.6-0.5l0.4-0.2l-0.4-0.2L59.1,44l-0.5-0.6l-0.4-0.7
				L58,41.9l-0.1-0.8l0.1-0.8l0.2-0.8l0.4-0.7l0.5-0.6l0.6-0.5l0.4-0.2L59.4,37l-0.6-0.6l-0.5-0.7l-0.3-0.7l0-0.2l0.3-0.6h4.4v0.1
				h0.7v-0.1h4.4l0.3,0.6l0,0.2l-0.3,0.7l-0.5,0.7L66.8,37l-0.7,0.4l0.4,0.2l0.6,0.5l0.5,0.6l0.4,0.7l0.2,0.8l0.1,0.8h21.5l12-12
				l0.1-0.1l0.5-0.4l0.6-0.3l0.6-0.2l0.5,0l0,0l0.2,0l0.2,0H158l0.2-0.1l0.7-0.3l0.7-0.1h0.7l0.7,0.1l0.7,0.3l0.6,0.4l0.5,0.5
				l0.4,0.6l0.3,0.7l0.1,0.7h6.8l0.1-0.7l0.3-0.7l0.4-0.6l0.5-0.5l0.6-0.4l0.7-0.3l0.7-0.1h0.7l0.7,0.1l0.7,0.3l0.6,0.4l0.4,0.4h6.9
				l0.1,0l0.5,0l0.1,0l0.3,0.1l0.4,0.2l0.4,0.3l0.1,0.1l0.2,0.2l0.3-0.1h0.9l0.8,0.2l0.8,0.3l0.7,0.5l0.2,0.2l0-0.1l0.2-0.3l0.2-0.3
				l0.3-0.2l0.3-0.2l0.3-0.1l0.4,0h0V18.6h0l-0.4,0l-0.3-0.1l-0.3-0.2l-0.3-0.2l-0.2-0.3l-0.2-0.3l0-0.1l-0.2,0.2l-0.7,0.5l-0.8,0.3
				l-0.8,0.2h-0.9l-0.3-0.1l-3.1,3.1l-0.1,0.1l-0.4,0.3l-0.4,0.2l-0.2,0.1l-0.3,0.1l-0.1,0l-0.3,0l0,0l-0.1,0l-0.1,0h-4l-0.4,0.4
				l-0.6,0.4l-0.7,0.3l-0.7,0.1H174l-0.7-0.1l-0.7-0.3l-0.6-0.4l-0.5-0.5l-0.4-0.6l-0.3-0.7l-0.1-0.7v-0.7h-6.8v0.7l-0.1,0.7
				l-0.3,0.7l-0.4,0.6l-0.5,0.5l-0.6,0.4l-0.7,0.3l-0.7,0.1h-0.7l-0.7-0.1l-0.7-0.3l-0.6-0.4l-0.5-0.5l-0.4-0.6l-0.3-0.7l-0.1-0.7
				v-0.7l0.1-0.7l0.3-0.7l0.4-0.6l0.5-0.5l0.6-0.4l0.7-0.3l0.7-0.1h0.7l0.7,0.1l0.7,0.3l0.6,0.4l0.5,0.5l0.4,0.6l0.3,0.7l0.1,0.7
				h6.8l0.1-0.7l0.3-0.7l0.4-0.6L172,17l0.6-0.4l0.7-0.3l0.7-0.1h0.7l0.7,0.1l0.7,0.3l0.6,0.4l0.4,0.4h3.1l2.4-2.4l-0.1-0.3v-0.9
				l0.2-0.8l0.3-0.8l0.5-0.7l0.6-0.6l0.7-0.5l0.8-0.3l0.8-0.2h0.9l0.8,0.2l0.8,0.3l0.7,0.5l0.2,0.2l0-0.1l0.2-0.3l0.2-0.3l0.3-0.2
				L191,10l0.3-0.1l0.4,0h3.3l0.2-0.2l0.1-0.1l0.4-0.3l0.4-0.2l0.5-0.1l0.4,0l0,0l0.1,0l0.1,0h4.9l0.1-0.2l0.6-0.6l0.5-0.3H158v1.5
				l-0.1,0.6l-0.2,0.8l-0.4,0.7l-0.5,0.6l-0.6,0.5l-0.7,0.4l-0.8,0.2l-0.8,0.1l-0.8-0.1l-0.8-0.2l-0.7-0.4L151,12l-0.5-0.6l-0.2-0.4
				l-0.2,0.4l-0.5,0.6l-0.6,0.5l-0.7,0.4l-0.8,0.2l-0.8,0.1l-0.8-0.1l-0.8-0.2l-0.7-0.4l-0.6-0.5l-0.5-0.6l-0.2-0.4l-0.2,0.4
				l-0.5,0.6l-0.6,0.5l-0.7,0.4l-0.8,0.2l-0.8,0.1l-0.8-0.1l-0.8-0.2l-0.7-0.4l-0.6-0.5l-0.5-0.6l-0.2-0.4l-0.2,0.4l-0.5,0.6
				l-0.6,0.5l-0.7,0.4l-0.8,0.2l-0.8,0.1l-0.8-0.1l-0.8-0.2l-0.7-0.4l-0.6-0.5l-0.5-0.6l-0.2-0.4l-0.2,0.4L128,12l-0.6,0.5l-0.7,0.4
				l-0.8,0.2l-0.8,0.1l-0.8-0.1l-0.8-0.2l-0.7-0.4l-0.6-0.5l-0.5-0.6l-0.2-0.4l-0.2,0.4l-0.5,0.6l-0.6,0.5l-0.7,0.4l-0.8,0.2
				l-0.8,0.1l-0.8-0.1l-0.8-0.2l-0.7-0.4L115,12l-0.5-0.6l-0.2-0.4l-0.2,0.4l-0.5,0.6l-0.6,0.5l-0.7,0.4l-0.8,0.2l-0.8,0.1l-0.8-0.1
				l-0.8-0.2l-0.7-0.4l-0.5-0.4l-0.1,0.2l-0.2,0.3l-0.3,0.2l-0.3,0.2l-0.3,0.1l-0.4,0h-5.7l-0.4,0l-0.3-0.1l-0.3-0.2l-0.3-0.2
				l-0.2-0.3L99,12.1l-0.1-0.3l0-0.4V5.7l0-0.4L99,5l0.2-0.3l0.2-0.3l0.3-0.2l0.3-0.2l0.3-0.1l0.4,0h5.7l0.4,0l0.3,0.1l0.3,0.2
				l0.3,0.2l0.2,0.3L108,5l0.5-0.4l0.7-0.4l0.8-0.2l0.8-0.1l0.8,0.1l0.8,0.2l0.7,0.4l0.6,0.5l0.5,0.6l0.2,0.4l0.2-0.4l0.5-0.6
				l0.6-0.5l0.7-0.4l0.8-0.2l0.8-0.1l0.8,0.1l0.8,0.2l0.7,0.4l0.6,0.5l0.5,0.6l0.2,0.4l0.2-0.4l0.5-0.6l0.6-0.5l0.7-0.4l0.8-0.2
				l0.8-0.1l0.8,0.1l0.8,0.2l0.7,0.4l0.6,0.5l0.5,0.6l0.2,0.4l0.2-0.4l0.5-0.6l0.6-0.5l0.7-0.4l0.8-0.2l0.8-0.1l0.8,0.1l0.8,0.2
				l0.7,0.4l0.6,0.5l0.5,0.6l0.2,0.4l0.2-0.4l0.5-0.6l0.6-0.5l0.7-0.4l0.8-0.2l0.8-0.1l0.8,0.1l0.8,0.2l0.7,0.4l0.6,0.5l0.5,0.6
				l0.2,0.4l0.2-0.4l0.5-0.6l0.6-0.5l0.7-0.4l0.8-0.2l0.8-0.1l0.8,0.1l0.8,0.2l0.7,0.4l0.6,0.5l0.5,0.6l0.2,0.4l0.2-0.4l0.5-0.6
				l0.6-0.5l0.7-0.4l0.8-0.2l0.8-0.1l0.8,0.1l0.8,0.2l0.7,0.4l0.6,0.5l0.5,0.6l0.4,0.7l0.2,0.8l0.1,0.6h45.3l0.2-0.1l0.8-0.3
				l0.8-0.2h0.8l0.8,0.2l0.8,0.3l0.7,0.5l0.4,0.4l0.1-0.2l0.2-0.3l0.2-0.3l0.3-0.2l0.3-0.2l0.3-0.1l0.4,0l1.6,0l0.4,0.5h0.7l0.4-0.5
				l1.6,0l0.4,0l0.3,0.1l0.3,0.2l0.3,0.2l0.2,0.3l0.2,0.3l0.1,0.3l0,0.4h50.6V7.6h-40.6l-0.1,0l-0.1,0l-0.3,0l-0.4-0.1l-0.3-0.2
				l-0.3-0.2l-0.2-0.3l-0.2-0.3L225,6.1l0-0.4l0-0.1V1.9H72.8V5.6z"/>
		</g>
	</g>
</g>
<desc>Picture generated by PCBNEW</desc>
<g transform="translate(0 0) scale(1 1)">
</g>
<g>
	<g class="st10">
		<rect x="107.7" y="36.6" class="st11" width="50.3" height="4.5"/>
		<text transform="matrix(-1 0 0 1 157.9922 39.8827)"><tspan x="0" y="0" class="st12 st13 st14">GS8208</tspan><tspan x="13.9" y="0" class="st12 st13 st14 st15"> </tspan><tspan x="20" y="0" class="st12 st13 st14">Controller</tspan><tspan x="36.4" y="0" class="st12 st13 st14 st15"> </tspan><tspan x="42.6" y="0" class="st12 st13 st14">V1.0</tspan></text>
	</g>
	<g class="st10">
		<rect x="107.7" y="36.6" class="st11" width="50.3" height="4.5"/>
		<text transform="matrix(-1 0 0 1 157.9941 39.8812)"><tspan x="0" y="0" class="st16 st13 st14">GS8208</tspan><tspan x="13.9" y="0" class="st16 st13 st14 st15"> </tspan><tspan x="20" y="0" class="st16 st13 st14">Controller</tspan><tspan x="36.4" y="0" class="st16 st13 st14 st15"> </tspan><tspan x="42.6" y="0" class="st16 st13 st14">V1.0</tspan></text>
	</g>
	<path class="st17" d="M114.6,37l-0.3-0.1H114l-0.4,0.1l-0.3,0.3l-0.1,0.3l-0.1,0.5v0.4l0.1,0.5l0.1,0.3l0.3,0.3l0.4,0.1h0.3
		l0.4-0.1l0.1-0.1v-0.9h-0.5"/>
	<path class="st17" d="M115.9,39.6l0.4,0.1h0.7l0.3-0.1l0.1-0.1l0.1-0.3v-0.3l-0.1-0.3l-0.1-0.1l-0.3-0.1l-0.5-0.1l-0.3-0.1L116,38
		l-0.1-0.3v-0.3l0.1-0.3l0.1-0.1l0.3-0.1h0.7l0.4,0.1"/>
	<path class="st17" d="M119.1,38.1l-0.3-0.1l-0.1-0.1l-0.1-0.3v-0.1l0.1-0.3l0.1-0.1l0.3-0.1h0.5l0.3,0.1l0.1,0.1l0.1,0.3v0.1
		l-0.1,0.3l-0.1,0.1l-0.3,0.1H119.1l-0.3,0.1l-0.1,0.1l-0.1,0.3v0.5l0.1,0.3l0.1,0.1l0.3,0.1h0.5l0.3-0.1l0.1-0.1l0.1-0.3v-0.5
		l-0.1-0.3l-0.1-0.1l-0.3-0.1"/>
	<path class="st17" d="M121.3,37.2l0.1-0.1l0.3-0.1h0.7l0.3,0.1l0.1,0.1l0.1,0.3v0.3l-0.1,0.4l-1.6,1.6h1.8"/>
	<path class="st17" d="M124.6,36.9h0.3l0.3,0.1l0.1,0.1l0.1,0.3l0.1,0.5v0.7l-0.1,0.5l-0.1,0.3l-0.1,0.1l-0.3,0.1h-0.3l-0.3-0.1
		l-0.1-0.1l-0.1-0.3l-0.1-0.5V38l0.1-0.5l0.1-0.3l0.1-0.1L124.6,36.9"/>
	<path class="st17" d="M127.2,38.1l-0.3-0.1l-0.1-0.1l-0.1-0.3v-0.1l0.1-0.3l0.1-0.1l0.3-0.1h0.5L128,37l0.1,0.1l0.1,0.3v0.1
		l-0.1,0.3L128,38l-0.3,0.1H127.2l-0.3,0.1l-0.1,0.1l-0.1,0.3v0.5l0.1,0.3l0.1,0.1l0.3,0.1h0.5l0.3-0.1l0.1-0.1l0.1-0.3v-0.5
		l-0.1-0.3l-0.1-0.1l-0.3-0.1"/>
	<path class="st17" d="M133.3,39.5l-0.1,0.1l-0.4,0.1h-0.3l-0.4-0.1l-0.3-0.3l-0.1-0.3l-0.1-0.5v-0.4l0.1-0.5l0.1-0.3l0.3-0.3
		l0.4-0.1h0.3l0.4,0.1l0.1,0.1"/>
	<path class="st17" d="M134.9,39.7l-0.3-0.1l-0.1-0.1l-0.1-0.3v-0.8l0.1-0.3l0.1-0.1l0.3-0.1h0.4l0.3,0.1l0.1,0.1l0.1,0.3v0.8
		l-0.1,0.3l-0.1,0.1l-0.3,0.1H134.9"/>
	<path class="st17" d="M137,37.9v1.9"/>
	<path class="st17" d="M137,38.1l0.1-0.1l0.3-0.1h0.4l0.3,0.1l0.1,0.3v1.5"/>
	<path class="st17" d="M139.2,37.9h1.1"/>
	<path class="st17" d="M139.6,36.9v2.4l0.1,0.3l0.3,0.1h0.3"/>
	<path class="st17" d="M141.2,39.7v-1.9"/>
	<path class="st17" d="M141.2,38.4l0.1-0.3l0.1-0.1l0.3-0.1h0.3"/>
	<path class="st17" d="M143.4,39.7l-0.3-0.1l-0.1-0.1l-0.1-0.3v-0.8l0.1-0.3l0.1-0.1l0.3-0.1h0.4l0.3,0.1l0.1,0.1l0.1,0.3v0.8
		l-0.1,0.3l-0.1,0.1l-0.3,0.1H143.4"/>
	<path class="st17" d="M146,39.7l-0.3-0.1l-0.1-0.3v-2.4"/>
	<path class="st17" d="M147.4,39.7l-0.3-0.1l-0.1-0.3v-2.4"/>
	<path class="st17" d="M149.6,39.6l-0.3,0.1h-0.5l-0.3-0.1l-0.1-0.3v-1.1l0.1-0.3l0.3-0.1h0.5l0.3,0.1l0.1,0.3v0.3l-1.4,0.3"/>
	<path class="st17" d="M150.9,39.7v-1.9"/>
	<path class="st17" d="M150.9,38.4l0.1-0.3l0.1-0.1l0.3-0.1h0.3"/>
	<path class="st17" d="M154.5,36.9l0.9,2.8l0.9-2.8"/>
	<path class="st17" d="M158.8,39.7h-1.6"/>
	<path class="st17" d="M158,39.7v-2.8l-0.3,0.4l-0.3,0.3l-0.3,0.1"/>
	<path class="st17" d="M160,39.5l0.1,0.1l-0.1,0.1l-0.1-0.1L160,39.5v0.3"/>
	<path class="st17" d="M161.9,36.9h0.3l0.3,0.1l0.1,0.1l0.1,0.3l0.1,0.5v0.7l-0.1,0.5l-0.1,0.3l-0.1,0.1l-0.3,0.1h-0.3l-0.3-0.1
		l-0.1-0.1l-0.1-0.3l-0.1-0.5V38l0.1-0.5l0.1-0.3l0.1-0.1L161.9,36.9"/>
	<g class="st10">
		<rect x="120.1" y="41.3" class="st11" width="31" height="4.5"/>
		<text transform="matrix(-1 0 0 1 151.1611 44.5599)"><tspan x="0" y="0" class="st12 st13 st14">12V</tspan><tspan x="6.7" y="0" class="st12 st13 st14 st18"> </tspan><tspan x="10.1" y="0" class="st12 st13 st14">with</tspan><tspan x="16.8" y="0" class="st12 st13 st14 st18"> </tspan><tspan x="20.1" y="0" class="st12 st13 st14">WLED</tspan></text>
	</g>
	<g class="st10">
		<rect x="120.1" y="41.3" class="st11" width="31" height="4.5"/>
		<text transform="matrix(-1 0 0 1 151.1631 44.558)"><tspan x="0" y="0" class="st16 st13 st14">12V</tspan><tspan x="6.7" y="0" class="st16 st13 st14 st18"> </tspan><tspan x="10.1" y="0" class="st16 st13 st14">with</tspan><tspan x="16.8" y="0" class="st16 st13 st14 st18"> </tspan><tspan x="20.1" y="0" class="st16 st13 st14">WLED</tspan></text>
	</g>
	<path class="st17" d="M124.3,44.4h-1.6"/>
	<path class="st17" d="M123.5,44.4v-2.8l-0.3,0.4l-0.3,0.3l-0.3,0.1"/>
	<path class="st17" d="M125.4,41.9l0.1-0.1l0.3-0.1h0.7l0.3,0.1l0.1,0.1l0.1,0.3v0.3l-0.1,0.4l-1.6,1.6h1.8"/>
	<path class="st17" d="M127.8,41.6l0.9,2.8l1-2.8"/>
	<path class="st17" d="M132.5,42.5l0.5,1.9l0.5-1.4l0.5,1.4l0.5-1.9"/>
	<path class="st17" d="M135.8,44.4v-1.9"/>
	<path class="st17" d="M135.8,41.6l-0.1,0.1l0.1,0.1l0.1-0.1L135.8,41.6v0.3"/>
	<path class="st17" d="M136.7,42.5h1.1"/>
	<path class="st17" d="M137.1,41.6V44l0.1,0.3l0.3,0.1h0.3"/>
	<path class="st17" d="M138.7,44.4v-2.8"/>
	<path class="st17" d="M139.9,44.4v-1.5l-0.1-0.3l-0.3-0.1h-0.4l-0.3,0.1l-0.1,0.1"/>
	<path class="st17" d="M143.2,41.6l0.7,2.8l0.5-2l0.5,2l0.7-2.8"/>
	<path class="st17" d="M148,44.4h-1.3v-2.8"/>
	<path class="st17" d="M149,42.9h0.9"/>
	<path class="st17" d="M150.3,44.4H149v-2.8h1.3"/>
	<path class="st17" d="M151.6,44.4v-2.8h0.7l0.4,0.1l0.3,0.3l0.1,0.3l0.1,0.5v0.4l-0.1,0.5l-0.1,0.3l-0.3,0.3l-0.4,0.1H151.6"/>
	<g class="st10">
		<rect x="104.1" y="46" class="st11" width="57.8" height="4.5"/>
		<text transform="matrix(-1 0 0 1 161.8779 49.2367)"><tspan x="0" y="0" class="st12 st13 st14">Licensed</tspan><tspan x="15.1" y="0" class="st12 st13 st14 st19"> </tspan><tspan x="19.5" y="0" class="st12 st13 st14">under</tspan><tspan x="29.1" y="0" class="st12 st13 st14 st19"> </tspan><tspan x="33.5" y="0" class="st12 st13 st14">GNU</tspan><tspan x="41.9" y="0" class="st12 st13 st14 st19"> </tspan><tspan x="46.2" y="0" class="st12 st13 st14">GPLv3</tspan></text>
	</g>
	<g class="st10">
		<rect x="104.1" y="46" class="st11" width="57.8" height="4.5"/>
		<text transform="matrix(-1 0 0 1 161.8794 49.2352)"><tspan x="0" y="0" class="st16 st13 st14">Licensed</tspan><tspan x="15.1" y="0" class="st16 st13 st14 st19"> </tspan><tspan x="19.5" y="0" class="st16 st13 st14">under</tspan><tspan x="29.1" y="0" class="st16 st13 st14 st19"> </tspan><tspan x="33.5" y="0" class="st16 st13 st14">GNU</tspan><tspan x="41.9" y="0" class="st16 st13 st14 st19"> </tspan><tspan x="46.2" y="0" class="st16 st13 st14">GPLv3</tspan></text>
	</g>
	<path class="st17" d="M110.8,49.1h-1.4v-2.8"/>
	<path class="st17" d="M111.7,49.1v-1.9"/>
	<path class="st17" d="M111.7,46.3l-0.1,0.1l0.1,0.1l0.1-0.1L111.7,46.3v0.3"/>
	<path class="st17" d="M114.3,49l-0.3,0.1h-0.5l-0.3-0.1l-0.1-0.1l-0.1-0.3v-0.8l0.1-0.3l0.1-0.1l0.3-0.1h0.5l0.3,0.1"/>
	<path class="st17" d="M116.6,49l-0.3,0.1h-0.5l-0.3-0.1l-0.1-0.3v-1.1l0.1-0.3l0.3-0.1h0.5l0.3,0.1l0.1,0.3v0.3l-1.4,0.3"/>
	<path class="st17" d="M118,47.2v1.9"/>
	<path class="st17" d="M118,47.5l0.1-0.1l0.3-0.1h0.4l0.3,0.1l0.1,0.3v1.5"/>
	<path class="st17" d="M120.4,49l0.3,0.1h0.5l0.3-0.1l0.1-0.3v-0.1l-0.1-0.3l-0.3-0.1h-0.4l-0.3-0.1l-0.1-0.3v-0.1l0.1-0.3l0.3-0.1
		h0.4l0.3,0.1"/>
	<path class="st17" d="M123.9,49l-0.3,0.1h-0.5l-0.3-0.1l-0.1-0.3v-1.1l0.1-0.3l0.3-0.1h0.5l0.3,0.1l0.1,0.3v0.3l-1.3,0.3"/>
	<path class="st17" d="M126.5,49.1v-2.8"/>
	<path class="st17" d="M126.5,49l-0.3,0.1h-0.5l-0.3-0.1l-0.1-0.1l-0.1-0.3v-0.8l0.1-0.3l0.1-0.1l0.3-0.1h0.5l0.3,0.1"/>
	<path class="st17" d="M131.2,47.2v1.9"/>
	<path class="st17" d="M130,47.2v1.5l0.1,0.3l0.3,0.1h0.4L131,49l0.1-0.1"/>
	<path class="st17" d="M132.5,47.2v1.9"/>
	<path class="st17" d="M132.5,47.5l0.1-0.1l0.3-0.1h0.4l0.3,0.1l0.1,0.3v1.5"/>
	<path class="st17" d="M136.3,49.1v-2.8"/>
	<path class="st17" d="M136.3,49l-0.3,0.1h-0.5l-0.3-0.1l-0.1-0.1l-0.1-0.3v-0.8l0.1-0.3l0.1-0.1l0.3-0.1h0.5l0.3,0.1"/>
	<path class="st17" d="M138.7,49l-0.3,0.1h-0.5l-0.3-0.1l-0.1-0.3v-1.1l0.1-0.3l0.3-0.1h0.5l0.3,0.1l0.1,0.3v0.3l-1.3,0.3"/>
	<path class="st17" d="M140.1,49.1v-1.9"/>
	<path class="st17" d="M140.1,47.8l0.1-0.3l0.1-0.1l0.3-0.1h0.3"/>
	<path class="st17" d="M145.5,46.4l-0.3-0.1h-0.4l-0.4,0.1l-0.3,0.3l-0.1,0.3l-0.1,0.5v0.4l0.1,0.5l0.1,0.3l0.3,0.3l0.4,0.1h0.3
		l0.4-0.1l0.1-0.1v-1h-0.5"/>
	<path class="st17" d="M146.8,49.1v-2.8l1.6,2.8v-2.8"/>
	<path class="st17" d="M149.8,46.3v2.3l0.1,0.3l0.1,0.1l0.3,0.1h0.5l0.3-0.1l0.1-0.1l0.1-0.3v-2.3"/>
	<path class="st17" d="M156.4,46.4l-0.3-0.1h-0.4l-0.4,0.1l-0.3,0.3l-0.1,0.3l-0.1,0.5v0.4l0.1,0.5l0.1,0.3l0.3,0.3l0.4,0.1h0.3
		l0.4-0.1l0.1-0.1v-1H156"/>
	<path class="st17" d="M157.8,49.1v-2.8h1.1l0.3,0.1l0.1,0.1l0.1,0.3v0.4l-0.1,0.3l-0.1,0.1l-0.3,0.1h-1.1"/>
	<path class="st17" d="M161.9,49.1h-1.3v-2.8"/>
	<path class="st17" d="M162.6,47.2l0.7,1.9l0.7-1.9"/>
	<path class="st17" d="M164.8,46.3h1.8l-1,1.1h0.4l0.3,0.1l0.1,0.1l0.1,0.3v0.7l-0.1,0.3l-0.1,0.1l-0.3,0.1h-0.8l-0.3-0.1l-0.1-0.1"
		/>
</g>
<g>
	<path class="st20" d="M210.6,54.9l0.2,0.1l0.2,0.2l0.1,0.1l0.1,0.1l0,0.1l0,0.1l0,0.2l0,0.3l0,0.4l0,0.3l-0.1,0.2L211,57l-0.1,0.1
		l0,0l-0.1,0.1l-0.2,0l-0.2,0h-0.3v0.3l0,0.2l0,0.1l-0.1,0.1l-0.1,0.1l0,0l-0.1,0.1l-0.1,0l-0.1,0l0,0l0-0.1l0-0.2l0-0.2l0-0.3
		l0-0.4l0-0.1l0-0.4l0-0.3h0.5l0,0.2l0,0.2l0,0.1l0.1,0.1l0,0l0.1,0.1l0.1,0l0.1-0.1l0,0l0.1-0.1l0-0.1l0-0.1l0-0.2l0-0.1l0-0.3
		l0-0.2l-0.1-0.1l-0.1-0.1l-0.1,0l-0.2,0l-0.1,0.1l-0.1,0.2l0,0.3l0,0.1h-0.5l0-0.1l0-0.2l0-0.2l0-0.1l0-0.1l0-0.1l0-0.1l0,0
		l0.2-0.2l0.3-0.1l0.3,0L210.6,54.9z"/>
	<path class="st20" d="M214.8,54.9L215,55l0.1,0.1l0.1,0.1l0.1,0.1l0,0.2l0,0.2l0,0.3l0,0.2v0.8l-0.5,0.2l0-0.9l0-0.3l0-0.2l0-0.2
		l0-0.1l0-0.1l0,0l0,0l-0.2-0.1l-0.2,0l-0.1,0.1l0,0.1l0,0.1l0,0.1l0,0.2l0,0.2l0,0.2l0,0.3l0,0.2l0,0.1l0,0.1l-0.1,0.1l-0.1,0
		l-0.1,0.1l-0.1,0.1l0-1l0-0.4l0-0.3l0-0.2l0-0.1l0-0.1l0-0.1l0-0.1L214,55l0.3-0.1l0.3,0L214.8,54.9z"/>
	<path class="st20" d="M208.5,54.9l0.3,0.1l0.2,0.2l0.1,0.1l0.1,0.2l0,0.3l0,0.3l0,0.3l0,0.2l-0.1,0.2l0,0l-0.2,0.2l-0.3,0.1l-0.3,0
		l-0.3-0.1l-0.1,0l-0.2-0.1l-0.1-0.2l0,0l-0.1-0.1l0-0.1l0-0.1l0-0.2l0-0.3v-0.1v0h0.6l0,0.3l0,0.2l0,0.1l0,0.1l0,0l0.1,0.1l0.1,0
		l0.1-0.1l0.1-0.1l0-0.1l0-0.2l0,0l0-0.4l0-0.3l-0.1-0.2l-0.1-0.1l-0.1,0l-0.1,0l-0.1,0.1l-0.1,0.1l0,0.2l0,0.2h-0.6l0-0.3l0-0.2
		l0-0.1l0-0.1l0.1-0.1l0,0l0.2-0.2l0.2-0.1l0.2-0.1l0.1,0L208.5,54.9z"/>
	<path class="st20" d="M212.8,54.9l0.2,0.1l0.2,0.2l0.1,0.3l0,0.2l0,0.1l0,0.1l-0.1,0.1l-0.1,0.1l-0.2,0.1l-0.3,0.1l0,0l-0.2,0.1
		l-0.2,0.1l-0.1,0.1l0,0v0l0,0.1l0.1,0.1l0.1,0.1l0.1,0l0.2,0l0.1-0.1l0.1-0.1l0.1-0.1l0.1-0.1l0.1-0.1l0.1-0.1l0,0l0,0l0,0.1l0,0.2
		l0,0.2l-0.1,0.2l0,0L213,57l-0.2,0.2l-0.3,0.1l-0.3,0l-0.3-0.1l0,0l-0.2-0.2l-0.1-0.2l-0.1-0.3l0-0.1l0-0.4l0-0.2h0.5l0,0.1l0,0
		l0.1,0l0.1-0.1l0.2-0.1l0,0l0.1-0.1l0.1,0l0-0.1l-0.1-0.1l-0.1-0.1l-0.2,0l-0.1,0.1l-0.1,0.1l0,0.2h-0.5l0-0.1l0.1-0.3l0.1-0.2
		l0.2-0.2l0.3-0.1l0.3,0L212.8,54.9z"/>
	<path class="st20" d="M217.4,54.6l0,0.2l0,0.1l0,0.1l0,0l0,0l0.2-0.1l0.2,0l0.2,0.1l0.1,0.1l0.1,0.1l0.1,0.1l0.1,0.2l0,0.2l0,0.3
		l0,0.4v0.1l0,0.8l-0.2,0.1l-0.1,0l-0.1,0l0,0l0-0.1l0-0.1l0-0.2l0-0.3l0-0.2l0-0.3l0-0.2l0-0.2l0-0.1l0-0.1l0-0.1l0,0l-0.2-0.1
		l-0.2,0l-0.2,0.1l0,0l0,0.1l0,0.1l0,0.1l0,0.2l0,0.2l0,0.3v0.8l-0.2,0.1l-0.1,0l-0.1,0l0,0l0-0.1l0-0.1l0-0.2l0-0.3l0-0.4l0-0.4
		v-1.5l0.4-0.2L217.4,54.6z"/>
	<path class="st20" d="M219.9,55l0.2,0.1l0,0l0.1,0.1l0.1,0.1l0.1,0.2l0,0.2l0,0.3l0,0.4l0,0.1l0,0.8l-0.2,0.1l-0.1,0.1l-0.1,0l0,0
		l0-0.1l0-0.1l0-0.2l0-0.2v-0.3l0-0.2l0-0.1l-0.1,0l-0.2,0.1l-0.2,0.1l-0.2,0.1l-0.1,0.1l0,0.1v0l0,0.2l0.1,0.1l0.2,0l0.1,0l0.1,0
		l0,0.1l0,0.1l0,0.1l0,0l-0.1,0l-0.2,0l-0.2,0l-0.1,0l-0.2-0.2l-0.1-0.2l0-0.2l0-0.2l0.1-0.1l0.1-0.1l0.2-0.1l0.3-0.1l0,0l0.3-0.1
		l0.2-0.1l0.1-0.1l0-0.1l-0.1-0.1l0,0l-0.2-0.1l-0.2,0l-0.2,0.1l-0.1,0.2l0,0l-0.1,0.2l-0.1,0.1l-0.2,0.1v-0.2l0.1-0.3l0.2-0.3
		l0.1-0.1l0.2-0.1l0.2-0.1L219.9,55z"/>
	<path class="st20" d="M221.8,55l0.3,0.1l0.2,0.2l0.1,0.1l0.1,0.2l0,0.2l-0.1,0.1l0,0l-0.1,0.1l-0.1,0l0-0.1l0-0.1l0-0.2l-0.1-0.1
		l-0.2-0.1l-0.2,0l-0.2,0.1l-0.1,0l0,0.1l0,0.1l0,0.1l0,0.2l0,0.3l0,0.1l0,0.3l0,0.2l0,0.1l0,0.1l0,0.1l0,0l0,0l-0.1,0l-0.1,0l0-0.1
		l0-0.2l0-0.3l0-0.4l0-0.1l0-0.3l0-0.2l0-0.2l0-0.1l0-0.1l0-0.1l0,0l0.1-0.1l0.1-0.1l0,0l0.3-0.1L221.8,55z"/>
	<path class="st20" d="M224.3,55.4l0,0.4l0,0.3l0,0.2l0,0.2l0,0.1l0,0.1l0,0.1l0,0l-0.2,0.2l-0.2,0.1l-0.3,0l-0.3,0l-0.2-0.1
		l-0.2-0.1l-0.1-0.2l-0.1-0.2l0-0.3l0-0.2l0,0h0.4l0,0.2l0,0.2l0,0.1l0,0.1l0.1,0.1l0.2,0.1l0.2,0l0.2-0.1l0,0l0.1-0.1l0-0.1l0-0.1
		l0-0.2l0-0.2l0-0.3l0-0.2l0-0.1l0-0.1l0,0l-0.2-0.1l-0.2,0l-0.2,0.1l0,0l-0.1,0.1l0,0.1l0,0.1l0,0.2l0,0.2h-0.4l0-0.3l0-0.3
		l0.1-0.2l0.1-0.2l0.1-0.1l0.2-0.1l0.2,0l0.2,0l0.1,0l0,0l0,0l0-0.1l0-0.2l0-0.2l0-0.1l0-0.1l0.1,0l0,0l0.2-0.1L224.3,55.4z"/>
	<path class="st20" d="M226.5,55l0,0.1l0,0.2l0,0.3l0,0.3v1l-0.2,0.2l-0.1,0.1l-0.1,0l-0.1,0l-0.1,0l-0.2,0l-0.1,0l0,0l-0.1,0
		l-0.2,0l-0.1,0l-0.2,0l-0.1,0l-0.1-0.1l0,0l-0.2-0.2v-1.9l0.1-0.1l0.1,0l0.1,0l0,0.1l0,0.1l0,0.2l0,0.3l0,0.2l0,1l0.1,0l0.1,0
		l0.1,0l0-0.1l0-0.2l0-0.2l0-0.3l0-0.1l0-0.8l0.2-0.1l0.1,0l0.1,0l0,0l0,0.1l0,0.1l0,0.2l0,0.3l0,0.3l0,1h0.3l0-0.9l0-0.9l0.2-0.1
		L226.5,55L226.5,55L226.5,55L226.5,55z"/>
	<path class="st20" d="M227.9,55l0.2,0.1l0.1,0.1l0.1,0.1l0.1,0.1l0,0.2l0,0.2l0,0.3l0,0.2v0.8l-0.1,0.1l-0.1,0l-0.1,0l0-0.1l0-0.1
		l0-0.2l0-0.2l0-0.2l0-0.2l0-0.1l0,0l-0.1,0l-0.2,0.1l-0.2,0.1l-0.2,0.1l-0.1,0.1l-0.1,0.1l0,0l0,0.1l0,0.1l0.1,0.1l0.1,0l0.1,0
		l0.1,0l0.1,0l0,0.1l0,0l0,0.1l-0.1,0.1l-0.1,0l-0.2,0l-0.3-0.1l-0.1-0.1L227,57l-0.1-0.2l0-0.2l0.1-0.2l0.1-0.1l0.1-0.1l0.2-0.1
		l0.2-0.1l0,0l0.2-0.1l0.1-0.1l0-0.1l0-0.1l-0.1-0.1l-0.2-0.1l-0.2,0l-0.2,0.1l-0.1,0.2l0,0l-0.1,0.1l-0.1,0.1l-0.2,0.1v-0.2l0-0.2
		l0-0.1l0.1-0.1l0.1-0.1l0.1-0.1l0.1-0.1l0.1,0l0.1,0L227.9,55z"/>
	<path class="st20" d="M229.9,55L229.9,55l0.2,0.2l0.1,0.2l0.1,0.2l0,0.1l0,0.1l-0.1,0.1l-0.1,0l0,0l0-0.1l0-0.1l0-0.1l-0.1-0.2
		l-0.2-0.1l-0.2,0l0,0l-0.1,0.1l-0.1,0.1l-0.1,0.2l0,0.2l0,0.3l0,0.2l0,0.3l0,0.2l0,0.1l0,0.1l0,0l-0.1,0l0,0l-0.1,0l-0.1,0l0-0.1
		l0-0.1l0-0.2l0-0.3l0-0.2l0-0.4l0-0.3l0-0.2l0-0.2l0.1-0.1l0.1-0.1l0.1-0.1l0.2-0.1l0.3,0L229.9,55z"/>
	<path class="st20" d="M231.8,55.1l0.2,0.1l0.1,0.1l0.1,0.2l0,0.2l0,0.2l-0.6,0.2l-0.3,0.1l-0.2,0.1l-0.1,0.1l0,0.1l0.1,0.1l0.1,0.1
		l0.2,0.1l0.2,0l0.2-0.1l0.1-0.2l0-0.1l0.1-0.2l0.1-0.1l0.2-0.1v0.2l0,0.2l-0.1,0.1L232,57l0,0l-0.1,0.1l-0.1,0.1l-0.1,0l-0.1,0
		l-0.2,0l-0.2,0l-0.1-0.1l-0.1-0.1l-0.1-0.1l-0.1-0.2l0-0.2l0-0.3l0-0.1l0-0.2h0.3l0,0.1l0,0l0.1,0l0.1-0.1l0.2-0.1l0,0l0.2-0.1
		l0.1-0.1l0-0.1l-0.1-0.1l-0.1,0l-0.2-0.1l-0.2,0l-0.2,0.1l-0.1,0.2l0,0.1l0,0.2h-0.3l0-0.2l0-0.3l0.1-0.2l0.1-0.1l0.1-0.1l0.1,0
		l0.2-0.1l0.3,0L231.8,55.1z"/>
	<path class="st20" d="M220.1,37l0.3,0l0.2,0l0.1,0l0.1,0l0.1,0l0,0l0,0l0,0l0,0.1l0,0.2l0,0.3l0.1,0.3l0.1,0.3l0,0l0.1,0.3l0.1,0.3
		l0.1,0.2l0,0.2l0,0.1l0,0l0.1,0l0.1,0.1l0.2,0.1l0,0l0.2,0.1l0.3,0.1l0.3,0.1l0,0l0.4,0.2l0.9-0.6l0.3-0.2l0.3-0.2l0.2-0.1l0.2-0.1
		l0.1-0.1l0,0l0.1,0l0.1,0.1l0.2,0.2l0.2,0.2l0.3,0.2l0.2,0.2l0.2,0.2l0.2,0.2l0.1,0.1l0.1,0.1l0,0l0,0.1l0,0.1l-0.1,0.1l-0.1,0.2
		l-0.2,0.3l-0.2,0.3l-0.2,0.3l-0.2,0.3l-0.1,0.2l-0.1,0.2l-0.1,0.1l0,0l0,0.1l0,0.1l0.1,0.2l0,0.1l0.1,0.3l0.1,0.3l0.1,0.3l0.1,0.2
		l0.1,0.1l0,0.1l0,0l0.1,0l0.2,0l0.2,0l0.3,0.1l0.3,0.1l0.3,0.1l0.3,0.1l0.3,0l0.2,0l0.1,0l0,0l0,0l0,0l0,0.1l0,0.1l0,0.2l0,0.3
		l0,0.4v0.1V47l-0.3,0.1l-0.2,0l-0.2,0l-0.3,0.1l-0.3,0.1l-0.1,0l-0.3,0.1l-0.3,0.1l-0.2,0l-0.1,0l0,0l0,0.1l-0.1,0.2l-0.1,0.2l0,0
		l-0.1,0.3l-0.1,0.3l-0.1,0.3v0l-0.2,0.4l1.3,1.9l-0.8,0.8l-0.3,0.2l-0.2,0.2l-0.2,0.2l-0.1,0.1l-0.1,0.1l0,0l-0.1,0l-0.1-0.1
		l-0.2-0.1l-0.2-0.2l-0.3-0.2l-0.3-0.2l-0.2-0.2l-0.2-0.1l-0.1-0.1l-0.1,0l-0.1,0l-0.1,0.1l-0.2,0.1l0,0l-0.2,0.1l-0.2,0.1l-0.1,0
		l-0.1-0.1l0,0l0-0.1l-0.1-0.2l-0.1-0.2l-0.1-0.3l-0.1-0.4l-0.2-0.4l-0.2-0.4l-0.2-0.4l-0.2-0.4l-0.1-0.3l-0.1-0.3l-0.1-0.2
		l-0.1-0.1l0-0.1l0-0.1l0.1-0.1l0.1-0.1l0.4-0.4l0.3-0.4l0.2-0.4l0.1-0.5l0-0.5l0-0.2L222,45l-0.2-0.4l-0.3-0.4l-0.3-0.3l-0.4-0.2
		l-0.4-0.2l-0.4-0.1l-0.4,0l-0.4,0.1l-0.4,0.2l-0.4,0.3l-0.2,0.2l-0.3,0.4l-0.2,0.4l-0.1,0.5l0,0.5l0.1,0.5l0.2,0.5l0.2,0.4l0.3,0.4
		l0.4,0.3l0.2,0.1l0.1,0.1l0,0.1l0,0.1l-0.1,0.2l-0.1,0.2l-0.1,0.3l-0.1,0.4l-0.2,0.4l-0.2,0.4l-0.2,0.4l-0.2,0.4l-0.1,0.3l-0.1,0.3
		l-0.1,0.2l-0.1,0.1l0,0.1l-0.1,0.1l-0.1,0l-0.2-0.1l-0.2-0.1l0,0l-0.2-0.1l-0.1-0.1l-0.1,0l0,0l-0.1,0l-0.1,0.1l-0.2,0.1l-0.2,0.2
		l-0.3,0.2l-0.3,0.2l-0.2,0.2l-0.2,0.1l-0.1,0.1l-0.1,0l-0.1,0l-0.1-0.1l-0.2-0.2l-0.2-0.2l-0.2-0.2l-0.1-0.1l-0.8-0.8l0.6-0.9
		l0.2-0.3l0.2-0.3l0.1-0.2l0.1-0.2l0-0.1l0,0l0-0.1l-0.1-0.1l-0.1-0.2l-0.1-0.1l-0.1-0.3l-0.1-0.3l-0.1-0.2l0-0.1l-0.1-0.2l-0.1-0.1
		l0-0.1l-0.1,0l-0.2,0l-0.2-0.1l-0.3-0.1l-0.1,0l-0.3-0.1l-0.3-0.1l-0.3,0l-0.2,0l0,0L211,47v-1.2l0-0.4l0-0.3l0-0.2l0-0.1l0-0.1
		l0-0.1l0,0l0,0l0.1,0l0.2,0l0.2,0l0.3-0.1l0.3-0.1l0.3-0.1l0.3-0.1l0.3,0l0.2,0l0.1,0l0,0l0,0l0.1-0.1l0.1-0.2l0-0.1l0.1-0.3
		l0.1-0.3l0.1-0.3l0.1-0.2l0.1-0.2l0-0.1l0,0l0-0.1l-0.1-0.1l-0.1-0.2l-0.2-0.2l-0.2-0.3l0-0.1l-0.2-0.3l-0.2-0.2l-0.1-0.2l-0.1-0.1
		l0-0.1l0-0.1v0l0.1-0.1l0.1-0.1l0.2-0.2l0.2-0.2l0.2-0.2l0,0l0.3-0.3l0.2-0.2l0.2-0.1l0.1-0.1l0,0l0.1,0l0.1,0.1l0.2,0.1l0.3,0.2
		l0.3,0.2l0.1,0l0.9,0.6l0.4-0.2l0.3-0.1l0.3-0.1l0.2-0.1l0,0l0.2-0.1l0.1-0.1l0.1,0v0l0-0.1l0-0.2l0-0.2l0.1-0.3l0.1-0.3l0,0
		l0.1-0.3l0.1-0.3l0-0.3l0-0.2l0-0.1v0l0,0l0,0l0,0l0.1,0l0.1,0l0.2,0l0.3,0l0.4,0h0L220.1,37z"/>
</g>
<g>
	<g>
		<circle class="st3" cx="258" cy="70.9" r="4.7"/>
	</g>
	<g>
		<circle class="st3" cx="11.4" cy="70.9" r="4.7"/>
	</g>
	<g>
		<circle class="st3" cx="11.4" cy="17.1" r="4.7"/>
	</g>
	<g>
		<circle class="st3" cx="258" cy="17.1" r="4.7"/>
	</g>
	<g>
		<path class="st21" d="M212.4,73.6v0.3"/>
		<path class="st21" d="M219.6,73.6v0.3"/>
	</g>
	<g>
		<path class="st1" d="M224.1,70.8L224.1,70.8L224.1,70.8L224.1,70.8L224.1,70.8L224.1,70.8L224.1,70.8L224.1,70.8L224.1,70.8
			l-0.1,0.1l0,0l0,0l0,0l0,0l0,0l0,0v5.7l0,0l0,0l0,0l0,0l0,0l0,0l0,0l0,0l0,0l0,0l0,0l0,0l0,0l0,0l0,0h0h5.4h0l0,0l0,0l0,0l0,0l0,0
			l0,0l0,0l0,0l0,0l0,0l0,0l0,0l0,0l0,0l0,0v-5.7l0,0l0,0l0,0l0,0l0,0l0,0l0,0l0,0l0,0l0,0l0,0l0,0l0,0l0,0l0,0l0,0L224.1,70.8
			L224.1,70.8z"/>
		<circle class="st3" cx="219.6" cy="26.5" r="5.1"/>
	</g>
	<g>
		<path class="st22" d="M103.5,72.8v1.1"/>
		<path class="st22" d="M110.7,72.8v1.1"/>
		<path class="st22" d="M117.9,72.8v1.1"/>
		<path class="st22" d="M125.1,72.8v1.1"/>
		<path class="st22" d="M132.3,72.8v1.1"/>
		<path class="st22" d="M139.5,72.8v1.1"/>
		<path class="st22" d="M146.7,72.8v1.1"/>
		<path class="st22" d="M153.9,72.8v1.1"/>
		<path class="st22" d="M153.9,8v1.1"/>
		<path class="st22" d="M146.7,8v1.1"/>
		<path class="st22" d="M139.5,8v1.1"/>
		<path class="st22" d="M132.3,8v1.1"/>
		<path class="st22" d="M125.1,8v1.1"/>
		<path class="st22" d="M117.9,8v1.1"/>
	</g>
	<g>
		<path class="st1" d="M100.7,5.6L100.7,5.6L100.7,5.6L100.7,5.6L100.7,5.6L100.7,5.6L100.7,5.6L100.7,5.6L100.7,5.6l-0.1,0.1l0,0
			l0,0l0,0l0,0l0,0l0,0v5.7l0,0l0,0l0,0l0,0l0,0l0,0l0,0l0,0l0,0l0,0l0,0l0,0l0,0l0,0l0,0l0,0h5.7l0,0l0,0l0,0l0,0l0,0l0,0l0,0l0,0
			l0,0l0,0l0,0l0,0l0,0l0,0l0,0v0V5.7v0l0,0l0,0l0,0l0,0l0,0l0,0l0,0l0,0l0,0l0,0l0,0l0,0l0,0l0,0l0,0L100.7,5.6L100.7,5.6z"/>
	</g>
	<g>
		<path class="st22" d="M110.7,8v1.1"/>
	</g>
	<g>
		<path class="st22" d="M62,62.7h2.3"/>
		<path class="st22" d="M40.4,19.5h2.3"/>
		<path class="st22" d="M62,55.5h2.3"/>
		<path class="st22" d="M40.4,26.7h2.3"/>
		<path class="st22" d="M62,48.3h2.3"/>
		<path class="st22" d="M40.4,33.9h2.3"/>
		<path class="st22" d="M62,41.1h2.3"/>
		<path class="st22" d="M40.4,41.1h2.3"/>
		<path class="st22" d="M62,33.9h2.3"/>
		<path class="st22" d="M40.4,48.3h2.3"/>
		<path class="st22" d="M62,26.7h2.3"/>
		<path class="st22" d="M40.4,55.5h2.3"/>
		<path class="st22" d="M62,19.5h2.3"/>
	</g>
	<g>
		<path class="st1" d="M38.1,60.3L38.1,60.3L38.1,60.3L38.1,60.3L38.1,60.3L38.1,60.3L38.1,60.3L38.1,60.3L38.1,60.3L38,60.3l0,0
			l0,0l0,0l0,0l0,0l0,0v4.5l0,0l0,0l0,0l0,0l0,0l0,0l0,0l0,0l0,0l0,0l0,0l0,0l0,0l0,0l0,0l0,0h6.8l0,0l0,0l0,0l0,0l0,0l0,0l0,0l0,0
			l0,0l0,0l0,0l0,0l0,0l0,0l0,0l0,0v-4.5l0,0l0,0l0,0l0,0l0,0l0,0l0,0l0,0l0,0l0,0l0,0l0,0l0,0l0,0l0,0l0,0L38.1,60.3L38.1,60.3z"/>
	</g>
	<g>
		<circle class="st3" cx="33.7" cy="41.1" r="2.1"/>
		<circle class="st3" cx="19.3" cy="41.1" r="2.1"/>
	</g>
	<g>
		<circle class="st3" cx="174.4" cy="31.3" r="2.1"/>
		<circle class="st3" cx="160" cy="31.3" r="2.1"/>
	</g>
	<g>
		<circle class="st3" cx="174.4" cy="19.9" r="2.1"/>
		<circle class="st3" cx="160" cy="19.9" r="2.1"/>
	</g>
	<g>
		<circle class="st3" cx="260.8" cy="38.2" r="2.6"/>
		<path class="st1" d="M258.4,42.9L258.4,42.9L258.4,42.9L258.4,42.9L258.4,42.9L258.4,42.9L258.4,42.9L258.4,42.9L258.4,42.9
			l-0.1,0.1l0,0l0,0l0,0l0,0l0,0l0,0v4.8l0,0l0,0l0,0l0,0l0,0l0,0l0,0l0,0l0,0l0,0l0,0l0,0l0,0l0,0l0,0l0,0h4.8l0,0l0,0l0,0l0,0l0,0
			l0,0l0,0l0,0l0,0l0,0l0,0l0,0l0,0l0,0l0,0l0,0V43l0,0l0,0l0,0l0,0l0,0l0,0l0,0l0,0l0,0l0,0l0,0l0,0l0,0l0,0l0,0l0,0L258.4,42.9
			L258.4,42.9z"/>
	</g>
	<g>
		<circle class="st3" cx="5.7" cy="33.9" r="2.6"/>
		<circle class="st3" cx="5.7" cy="41.1" r="2.6"/>
		<circle class="st3" cx="5.7" cy="48.3" r="2.6"/>
		<path class="st1" d="M3.3,52.9L3.3,52.9L3.3,52.9L3.3,52.9L3.3,52.9L3.3,52.9L3.3,52.9L3.3,52.9L3.3,52.9L3.2,53l0,0l0,0l0,0l0,0
			l0,0l0,0v4.8l0,0l0,0l0,0l0,0l0,0l0,0l0,0l0,0l0,0l0,0l0,0l0,0l0,0l0,0l0,0l0,0h4.8l0,0l0,0l0,0l0,0l0,0l0,0l0,0l0,0l0,0l0,0l0,0
			l0,0l0,0l0,0l0,0l0,0v-4.8l0,0l0,0l0,0l0,0l0,0l0,0l0,0l0,0l0,0l0,0l0,0l0,0l0,0l0,0l0,0l0,0L3.3,52.9L3.3,52.9z"/>
	</g>
	<g>
		<circle class="st3" cx="205.5" cy="11.4" r="2.6"/>
		<path class="st1" d="M210.2,8.9L210.2,8.9L210.2,8.9L210.2,8.9L210.2,8.9L210.2,8.9L210.2,8.9L210.2,8.9L210.2,8.9l-0.1,0.1l0,0
			l0,0l0,0l0,0l0,0l0,0v4.8l0,0l0,0l0,0l0,0l0,0l0,0l0,0l0,0l0,0l0,0l0,0l0,0l0,0l0,0l0,0l0,0h4.8l0,0l0,0l0,0l0,0l0,0l0,0l0,0l0,0
			l0,0l0,0l0,0l0,0l0,0l0,0l0,0l0,0V9l0,0l0,0l0,0l0,0l0,0l0,0l0,0l0,0l0,0l0,0l0,0l0,0l0,0l0,0l0,0l0,0L210.2,8.9L210.2,8.9z"/>
	</g>
	<g>
		<circle class="st3" cx="241" cy="22.3" r="3.3"/>
		<path class="st1" d="M237.9,47.8L237.9,47.8L237.9,47.8L237.9,47.8L237.9,47.8L237.9,47.8L237.9,47.8L237.9,47.8L237.9,47.8
			l-0.1,0.1l0,0l0,0l0,0l0,0l0,0l0,0v6.2l0,0l0,0l0,0l0,0l0,0l0,0l0,0l0,0l0,0l0,0l0,0l0,0l0,0l0,0l0,0l0,0h6.2l0,0l0,0l0,0l0,0l0,0
			l0,0l0,0l0,0l0,0l0,0l0,0l0,0l0,0l0,0l0,0l0,0V48l0,0l0,0l0,0l0,0l0,0l0,0l0,0l0,0l0,0l0,0l0,0l0,0l0,0l0,0l0,0l0,0L237.9,47.8
			L237.9,47.8z"/>
	</g>
	<g>
		<circle class="st3" cx="187" cy="34.1" r="2.7"/>
	</g>
	<g>
		<path class="st1" d="M191.7,31.4L191.7,31.4L191.7,31.4L191.7,31.4L191.7,31.4L191.7,31.4L191.7,31.4L191.7,31.4L191.7,31.4
			l-0.1,0.1l0,0l0,0l0,0l0,0l0,0l0,0v5.1l0,0l0,0l0,0l0,0l0,0l0,0l0,0l0,0l0,0l0,0l0,0l0,0l0,0l0,0l0,0l0,0h5.1l0,0l0,0l0,0l0,0l0,0
			l0,0l0,0l0,0l0,0l0,0l0,0l0,0l0,0l0,0l0,0l0,0v-5.1l0,0l0,0l0,0l0,0l0,0l0,0l0,0l0,0l0,0l0,0l0,0l0,0l0,0l0,0l0,0l0,0L191.7,31.4
			L191.7,31.4z"/>
	</g>
	<g>
		<circle class="st3" cx="187" cy="14.2" r="2.7"/>
	</g>
	<g>
		<path class="st1" d="M191.7,11.6L191.7,11.6L191.7,11.6L191.7,11.6L191.7,11.6L191.7,11.6L191.7,11.6L191.7,11.6L191.7,11.6
			l-0.1,0.1l0,0l0,0l0,0l0,0l0,0l0,0v5.1l0,0l0,0l0,0l0,0l0,0l0,0l0,0l0,0l0,0l0,0l0,0l0,0l0,0l0,0l0,0l0,0h5.1l0,0l0,0l0,0l0,0l0,0
			l0,0l0,0l0,0l0,0l0,0l0,0l0,0l0,0l0,0l0,0l0,0v-5.1l0,0l0,0l0,0l0,0l0,0l0,0l0,0l0,0l0,0l0,0l0,0l0,0l0,0l0,0l0,0l0,0L191.7,11.6
			L191.7,11.6z"/>
	</g>
	<g>
		<circle class="st3" cx="199.9" cy="59.6" r="2.4"/>
	</g>
	<g>
		<circle class="st3" cx="199.9" cy="73.8" r="2.4"/>
	</g>
	<g>
		<circle class="st3" cx="241" cy="59.6" r="2.4"/>
	</g>
	<g>
		<circle class="st3" cx="241" cy="73.8" r="2.4"/>
	</g>
	<g>
		<circle class="st3" cx="73.1" cy="48.3" r="2.4"/>
	</g>
	<g>
		<circle class="st3" cx="73.1" cy="62.4" r="2.4"/>
	</g>
	<g>
		<circle class="st3" cx="140.4" cy="64.6" r="2.4"/>
	</g>
	<g>
		<circle class="st3" cx="154.6" cy="64.6" r="2.4"/>
	</g>
	<g>
		<circle class="st3" cx="186.4" cy="63.9" r="2.4"/>
	</g>
	<g>
		<circle class="st3" cx="186.4" cy="69.5" r="2.4"/>
	</g>
	<g>
		<circle class="st3" cx="28.4" cy="25.6" r="2.4"/>
	</g>
	<g>
		<circle class="st3" cx="28.4" cy="31.3" r="2.4"/>
	</g>
</g>
<g>
	<circle class="st23" cx="79.4" cy="11.4" r="1.4"/>
</g>
<g>
	<circle class="st23" cx="258" cy="70.9" r="4.5"/>
</g>
<g>
	<circle class="st23" cx="11.4" cy="70.9" r="4.5"/>
</g>
<g>
	<circle class="st23" cx="11.4" cy="17.1" r="4.5"/>
</g>
<g>
	<circle class="st23" cx="258" cy="17.1" r="4.5"/>
</g>
<g>
	<circle class="st23" cx="212.4" cy="73.8" r="1.6"/>
</g>
<g>
	<circle class="st23" cx="219.6" cy="73.8" r="1.6"/>
</g>
<g>
	<circle class="st23" cx="226.8" cy="73.8" r="1.6"/>
</g>
<g>
	<circle class="st23" cx="219.6" cy="26.5" r="5"/>
</g>
<g>
	<circle class="st23" cx="103.5" cy="73.4" r="1.4"/>
</g>
<g>
	<circle class="st23" cx="110.7" cy="73.4" r="1.4"/>
</g>
<g>
	<circle class="st23" cx="117.9" cy="73.4" r="1.4"/>
</g>
<g>
	<circle class="st23" cx="125.1" cy="73.4" r="1.4"/>
</g>
<g>
	<circle class="st23" cx="132.3" cy="73.4" r="1.4"/>
</g>
<g>
	<circle class="st23" cx="139.5" cy="73.4" r="1.4"/>
</g>
<g>
	<circle class="st23" cx="146.7" cy="73.4" r="1.4"/>
</g>
<g>
	<circle class="st23" cx="153.9" cy="73.4" r="1.4"/>
</g>
<g>
	<circle class="st23" cx="153.9" cy="8.6" r="1.4"/>
</g>
<g>
	<circle class="st23" cx="146.7" cy="8.6" r="1.4"/>
</g>
<g>
	<circle class="st23" cx="139.5" cy="8.6" r="1.4"/>
</g>
<g>
	<circle class="st23" cx="132.3" cy="8.6" r="1.4"/>
</g>
<g>
	<circle class="st23" cx="125.1" cy="8.6" r="1.4"/>
</g>
<g>
	<circle class="st23" cx="117.9" cy="8.6" r="1.4"/>
</g>
<g>
	<circle class="st23" cx="103.5" cy="8.6" r="1.4"/>
</g>
<g>
	<circle class="st23" cx="110.7" cy="8.6" r="1.4"/>
</g>
<g>
	<circle class="st23" cx="63.1" cy="62.7" r="1.1"/>
</g>
<g>
	<circle class="st23" cx="41.5" cy="19.5" r="1.1"/>
</g>
<g>
	<circle class="st23" cx="63.1" cy="55.5" r="1.1"/>
</g>
<g>
	<circle class="st23" cx="41.5" cy="26.7" r="1.1"/>
</g>
<g>
	<circle class="st23" cx="63.1" cy="48.3" r="1.1"/>
</g>
<g>
	<circle class="st23" cx="41.5" cy="33.9" r="1.1"/>
</g>
<g>
	<circle class="st23" cx="63.1" cy="41.1" r="1.1"/>
</g>
<g>
	<circle class="st23" cx="41.5" cy="41.1" r="1.1"/>
</g>
<g>
	<circle class="st23" cx="63.1" cy="33.9" r="1.1"/>
</g>
<g>
	<circle class="st23" cx="41.5" cy="48.3" r="1.1"/>
</g>
<g>
	<circle class="st23" cx="63.1" cy="26.7" r="1.1"/>
</g>
<g>
	<circle class="st23" cx="41.5" cy="55.5" r="1.1"/>
</g>
<g>
	<circle class="st23" cx="63.1" cy="19.5" r="1.1"/>
</g>
<g>
	<circle class="st23" cx="41.5" cy="62.7" r="1.1"/>
</g>
<g>
	<circle class="st23" cx="33.7" cy="41.1" r="1"/>
</g>
<g>
	<circle class="st23" cx="19.3" cy="41.1" r="1"/>
</g>
<g>
	<circle class="st23" cx="174.4" cy="31.3" r="1"/>
</g>
<g>
	<circle class="st23" cx="160" cy="31.3" r="1"/>
</g>
<g>
	<circle class="st23" cx="174.4" cy="19.9" r="1"/>
</g>
<g>
	<circle class="st23" cx="160" cy="19.9" r="1"/>
</g>
<g>
	<circle class="st23" cx="260.8" cy="38.2" r="1.4"/>
</g>
<g>
	<circle class="st23" cx="260.8" cy="45.4" r="1.4"/>
</g>
<g>
	<circle class="st23" cx="5.7" cy="33.9" r="1.4"/>
</g>
<g>
	<circle class="st23" cx="5.7" cy="41.1" r="1.4"/>
</g>
<g>
	<circle class="st23" cx="5.7" cy="48.3" r="1.4"/>
</g>
<g>
	<circle class="st23" cx="5.7" cy="55.5" r="1.4"/>
</g>
<g>
	<circle class="st23" cx="205.5" cy="11.4" r="1.4"/>
</g>
<g>
	<circle class="st23" cx="212.7" cy="11.4" r="1.4"/>
</g>
<g>
	<circle class="st23" cx="241" cy="22.3" r="1.6"/>
</g>
<g>
	<circle class="st23" cx="241" cy="51.1" r="1.6"/>
</g>
<g>
	<circle class="st23" cx="187" cy="34.1" r="1.3"/>
</g>
<g>
	<circle class="st23" cx="194.2" cy="34.1" r="1.3"/>
</g>
<g>
	<circle class="st23" cx="187" cy="14.2" r="1.3"/>
</g>
<g>
	<circle class="st23" cx="194.2" cy="14.2" r="1.3"/>
</g>
<g>
	<circle class="st23" cx="199.9" cy="59.6" r="1.1"/>
</g>
<g>
	<circle class="st23" cx="199.9" cy="73.8" r="1.1"/>
</g>
<g>
	<circle class="st23" cx="241" cy="59.6" r="1.1"/>
</g>
<g>
	<circle class="st23" cx="241" cy="73.8" r="1.1"/>
</g>
<g>
	<circle class="st23" cx="73.1" cy="48.3" r="1.1"/>
</g>
<g>
	<circle class="st23" cx="73.1" cy="62.4" r="1.1"/>
</g>
<g>
	<circle class="st23" cx="140.4" cy="64.6" r="1.1"/>
</g>
<g>
	<circle class="st23" cx="154.6" cy="64.6" r="1.1"/>
</g>
<g>
	<circle class="st23" cx="186.4" cy="63.9" r="1.1"/>
</g>
<g>
	<circle class="st23" cx="186.4" cy="69.5" r="1.1"/>
</g>
<g>
	<circle class="st23" cx="28.4" cy="25.6" r="1.1"/>
</g>
<g>
	<circle class="st23" cx="28.4" cy="31.3" r="1.1"/>
</g>
<g>
	<path class="st24" d="M70.9,5.7H0.1"/>
	<path class="st24" d="M70.9,0.1v5.7"/>
	<path class="st24" d="M76.6,0.1h-5.7"/>
	<path class="st24" d="M269.4,5.7v76.5"/>
	<path class="st24" d="M226.8,5.7h42.5"/>
	<path class="st24" d="M226.8,0.1v5.7"/>
	<path class="st24" d="M76.6,0.1h150.2"/>
	<path class="st24" d="M0.1,82.3V5.7"/>
	<path class="st24" d="M269.4,82.3H0.1"/>
</g>
</svg>
